<svg width="160" height="600" viewBox="0 0 160 600" fill="none" xmlns="http://www.w3.org/2000/svg">
<rect width="160" height="600" fill="white" fill-opacity="0.1"/>
<path d="M38.9668 299V315H36.0684V301.82H35.9746L32.2324 304.211V301.555L36.209 299H38.9668ZM48.8887 315.219C48.123 315.214 47.3757 315.081 46.6465 314.82C45.9173 314.555 45.2611 314.125 44.6777 313.531C44.0944 312.932 43.6309 312.138 43.2871 311.148C42.9434 310.154 42.7741 308.922 42.7793 307.453C42.7793 306.083 42.9251 304.862 43.2168 303.789C43.5085 302.716 43.9277 301.81 44.4746 301.07C45.0215 300.326 45.6803 299.758 46.4512 299.367C47.2272 298.977 48.0944 298.781 49.0527 298.781C50.0579 298.781 50.9486 298.979 51.7246 299.375C52.5059 299.771 53.1361 300.312 53.6152 301C54.0944 301.682 54.3913 302.453 54.5059 303.312H51.6543C51.5085 302.698 51.209 302.208 50.7559 301.844C50.3079 301.474 49.7402 301.289 49.0527 301.289C47.9434 301.289 47.0892 301.771 46.4902 302.734C45.8965 303.698 45.597 305.021 45.5918 306.703H45.7012C45.9564 306.245 46.2871 305.852 46.6934 305.523C47.0996 305.195 47.5579 304.943 48.0684 304.766C48.584 304.583 49.1283 304.492 49.7012 304.492C50.6387 304.492 51.4798 304.716 52.2246 305.164C52.9746 305.612 53.5684 306.229 54.0059 307.016C54.4434 307.797 54.6595 308.693 54.6543 309.703C54.6595 310.755 54.4199 311.701 53.9355 312.539C53.4512 313.372 52.7767 314.029 51.9121 314.508C51.0475 314.987 50.0397 315.224 48.8887 315.219ZM48.873 312.875C49.4408 312.875 49.9486 312.737 50.3965 312.461C50.8444 312.185 51.1986 311.812 51.459 311.344C51.7194 310.875 51.847 310.349 51.8418 309.766C51.847 309.193 51.722 308.674 51.4668 308.211C51.2168 307.747 50.8704 307.38 50.4277 307.109C49.985 306.839 49.4798 306.703 48.9121 306.703C48.4902 306.703 48.097 306.784 47.7324 306.945C47.3678 307.107 47.0501 307.331 46.7793 307.617C46.5085 307.898 46.2949 308.227 46.1387 308.602C45.9876 308.971 45.9095 309.367 45.9043 309.789C45.9095 310.346 46.0397 310.859 46.2949 311.328C46.5501 311.797 46.9017 312.172 47.3496 312.453C47.7975 312.734 48.3053 312.875 48.873 312.875ZM63.209 315.305C61.9225 315.305 60.8184 314.979 59.8965 314.328C58.9798 313.672 58.2741 312.727 57.7793 311.492C57.2897 310.253 57.0449 308.76 57.0449 307.016C57.0501 305.271 57.2975 303.786 57.7871 302.562C58.2819 301.333 58.9876 300.396 59.9043 299.75C60.8262 299.104 61.9277 298.781 63.209 298.781C64.4902 298.781 65.5918 299.104 66.5137 299.75C67.4355 300.396 68.1413 301.333 68.6309 302.562C69.1257 303.792 69.373 305.276 69.373 307.016C69.373 308.766 69.1257 310.26 68.6309 311.5C68.1413 312.734 67.4355 313.677 66.5137 314.328C65.597 314.979 64.4954 315.305 63.209 315.305ZM63.209 312.859C64.209 312.859 64.998 312.367 65.5762 311.383C66.1595 310.393 66.4512 308.937 66.4512 307.016C66.4512 305.745 66.3184 304.677 66.0527 303.812C65.7871 302.948 65.4121 302.297 64.9277 301.859C64.4434 301.417 63.8704 301.195 63.209 301.195C62.2142 301.195 61.4277 301.69 60.8496 302.68C60.2715 303.664 59.9798 305.109 59.9746 307.016C59.9694 308.292 60.097 309.365 60.3574 310.234C60.623 311.104 60.998 311.76 61.4824 312.203C61.9668 312.641 62.5423 312.859 63.209 312.859ZM81.6484 312.562L72.4844 303.414L74.25 301.641L83.4063 310.797L81.6484 312.562ZM74.25 312.562L72.4844 310.797L81.6484 301.641L83.4063 303.414L74.25 312.562ZM92.6309 315.219C91.8652 315.214 91.1178 315.081 90.3887 314.82C89.6595 314.555 89.0033 314.125 88.4199 313.531C87.8366 312.932 87.373 312.138 87.0293 311.148C86.6855 310.154 86.5163 308.922 86.5215 307.453C86.5215 306.083 86.6673 304.862 86.959 303.789C87.2507 302.716 87.6699 301.81 88.2168 301.07C88.7637 300.326 89.4225 299.758 90.1934 299.367C90.9694 298.977 91.8366 298.781 92.7949 298.781C93.8001 298.781 94.6908 298.979 95.4668 299.375C96.248 299.771 96.8783 300.312 97.3574 301C97.8366 301.682 98.1335 302.453 98.248 303.312H95.3965C95.2507 302.698 94.9512 302.208 94.498 301.844C94.0501 301.474 93.4824 301.289 92.7949 301.289C91.6855 301.289 90.8314 301.771 90.2324 302.734C89.6387 303.698 89.3392 305.021 89.334 306.703H89.4434C89.6986 306.245 90.0293 305.852 90.4355 305.523C90.8418 305.195 91.3001 304.943 91.8105 304.766C92.3262 304.583 92.8704 304.492 93.4434 304.492C94.3809 304.492 95.222 304.716 95.9668 305.164C96.7168 305.612 97.3105 306.229 97.748 307.016C98.1855 307.797 98.4017 308.693 98.3965 309.703C98.4017 310.755 98.1621 311.701 97.6777 312.539C97.1934 313.372 96.5189 314.029 95.6543 314.508C94.7897 314.987 93.7819 315.224 92.6309 315.219ZM92.6152 312.875C93.1829 312.875 93.6908 312.737 94.1387 312.461C94.5866 312.185 94.9408 311.812 95.2012 311.344C95.4616 310.875 95.5892 310.349 95.584 309.766C95.5892 309.193 95.4642 308.674 95.209 308.211C94.959 307.747 94.6126 307.38 94.1699 307.109C93.7272 306.839 93.222 306.703 92.6543 306.703C92.2324 306.703 91.8392 306.784 91.4746 306.945C91.11 307.107 90.7923 307.331 90.5215 307.617C90.2507 307.898 90.0371 308.227 89.8809 308.602C89.7298 308.971 89.6517 309.367 89.6465 309.789C89.6517 310.346 89.7819 310.859 90.0371 311.328C90.2923 311.797 90.6439 312.172 91.0918 312.453C91.5397 312.734 92.0475 312.875 92.6152 312.875ZM106.951 315.305C105.665 315.305 104.561 314.979 103.639 314.328C102.722 313.672 102.016 312.727 101.521 311.492C101.032 310.253 100.787 308.76 100.787 307.016C100.792 305.271 101.04 303.786 101.529 302.562C102.024 301.333 102.73 300.396 103.646 299.75C104.568 299.104 105.67 298.781 106.951 298.781C108.232 298.781 109.334 299.104 110.256 299.75C111.178 300.396 111.883 301.333 112.373 302.562C112.868 303.792 113.115 305.276 113.115 307.016C113.115 308.766 112.868 310.26 112.373 311.5C111.883 312.734 111.178 313.677 110.256 314.328C109.339 314.979 108.238 315.305 106.951 315.305ZM106.951 312.859C107.951 312.859 108.74 312.367 109.318 311.383C109.902 310.393 110.193 308.937 110.193 307.016C110.193 305.745 110.061 304.677 109.795 303.812C109.529 302.948 109.154 302.297 108.67 301.859C108.186 301.417 107.613 301.195 106.951 301.195C105.956 301.195 105.17 301.69 104.592 302.68C104.014 303.664 103.722 305.109 103.717 307.016C103.712 308.292 103.839 309.365 104.1 310.234C104.365 311.104 104.74 311.76 105.225 312.203C105.709 312.641 106.285 312.859 106.951 312.859ZM121.625 315.305C120.339 315.305 119.234 314.979 118.313 314.328C117.396 313.672 116.69 312.727 116.195 311.492C115.706 310.253 115.461 308.76 115.461 307.016C115.466 305.271 115.714 303.786 116.203 302.562C116.698 301.333 117.404 300.396 118.32 299.75C119.242 299.104 120.344 298.781 121.625 298.781C122.906 298.781 124.008 299.104 124.93 299.75C125.852 300.396 126.557 301.333 127.047 302.562C127.542 303.792 127.789 305.276 127.789 307.016C127.789 308.766 127.542 310.26 127.047 311.5C126.557 312.734 125.852 313.677 124.93 314.328C124.013 314.979 122.911 315.305 121.625 315.305ZM121.625 312.859C122.625 312.859 123.414 312.367 123.992 311.383C124.576 310.393 124.867 308.937 124.867 307.016C124.867 305.745 124.734 304.677 124.469 303.812C124.203 302.948 123.828 302.297 123.344 301.859C122.859 301.417 122.286 301.195 121.625 301.195C120.63 301.195 119.844 301.69 119.266 302.68C118.688 303.664 118.396 305.109 118.391 307.016C118.385 308.292 118.513 309.365 118.773 310.234C119.039 311.104 119.414 311.76 119.898 312.203C120.383 312.641 120.958 312.859 121.625 312.859Z" fill="white" fill-opacity="0.4"/>
</svg>
