<svg width="728" height="90" viewBox="0 0 728 90" fill="none" xmlns="http://www.w3.org/2000/svg">
<rect width="728" height="90" fill="white" fill-opacity="0.1"/>
<path d="M324.248 54L331.053 40.5312V40.4219H323.154V38H334.053V40.4766L327.256 54H324.248ZM336.574 54V51.9062L342.129 46.4609C342.66 45.9245 343.103 45.4479 343.457 45.0312C343.811 44.6146 344.077 44.2109 344.254 43.8203C344.431 43.4297 344.52 43.013 344.52 42.5703C344.52 42.0651 344.405 41.6328 344.176 41.2734C343.947 40.9089 343.632 40.6276 343.23 40.4297C342.829 40.2318 342.374 40.1328 341.863 40.1328C341.337 40.1328 340.876 40.2422 340.48 40.4609C340.085 40.6745 339.777 40.9792 339.559 41.375C339.345 41.7708 339.238 42.2422 339.238 42.7891H336.48C336.48 41.7734 336.712 40.8906 337.176 40.1406C337.639 39.3906 338.277 38.8099 339.09 38.3984C339.908 37.987 340.845 37.7812 341.902 37.7812C342.975 37.7812 343.918 37.9818 344.73 38.3828C345.543 38.7839 346.173 39.3333 346.621 40.0312C347.074 40.7292 347.301 41.526 347.301 42.4219C347.301 43.0208 347.186 43.6094 346.957 44.1875C346.728 44.7656 346.324 45.4062 345.746 46.1094C345.173 46.8125 344.368 47.6641 343.332 48.6641L340.574 51.4687V51.5781H347.543V54H336.574ZM355.926 54.2187C354.764 54.2187 353.733 54.0234 352.832 53.6328C351.936 53.2422 351.233 52.7083 350.723 52.0312C350.217 51.349 349.967 50.5755 349.973 49.7109C349.967 49.0391 350.113 48.4219 350.41 47.8594C350.707 47.2969 351.108 46.8281 351.613 46.4531C352.124 46.0729 352.691 45.8307 353.316 45.7266V45.6172C352.493 45.4349 351.827 45.0156 351.316 44.3594C350.811 43.6979 350.561 42.9349 350.566 42.0703C350.561 41.2474 350.79 40.513 351.254 39.8672C351.717 39.2214 352.353 38.7135 353.16 38.3437C353.967 37.9687 354.889 37.7812 355.926 37.7812C356.952 37.7812 357.866 37.9687 358.668 38.3437C359.475 38.7135 360.111 39.2214 360.574 39.8672C361.043 40.513 361.277 41.2474 361.277 42.0703C361.277 42.9349 361.02 43.6979 360.504 44.3594C359.993 45.0156 359.335 45.4349 358.527 45.6172V45.7266C359.152 45.8307 359.715 46.0729 360.215 46.4531C360.72 46.8281 361.121 47.2969 361.418 47.8594C361.72 48.4219 361.871 49.0391 361.871 49.7109C361.871 50.5755 361.616 51.349 361.105 52.0312C360.595 52.7083 359.892 53.2422 358.996 53.6328C358.105 54.0234 357.082 54.2187 355.926 54.2187ZM355.926 51.9844C356.525 51.9844 357.046 51.8828 357.488 51.6797C357.931 51.4714 358.275 51.1797 358.52 50.8047C358.764 50.4297 358.889 49.9974 358.895 49.5078C358.889 48.9974 358.757 48.5469 358.496 48.1562C358.241 47.7604 357.889 47.4505 357.441 47.2266C356.999 47.0026 356.493 46.8906 355.926 46.8906C355.353 46.8906 354.842 47.0026 354.395 47.2266C353.947 47.4505 353.592 47.7604 353.332 48.1562C353.077 48.5469 352.952 48.9974 352.957 49.5078C352.952 49.9974 353.072 50.4297 353.316 50.8047C353.561 51.1745 353.905 51.4635 354.348 51.6719C354.796 51.8802 355.322 51.9844 355.926 51.9844ZM355.926 44.6953C356.415 44.6953 356.848 44.5964 357.223 44.3984C357.603 44.2005 357.902 43.9245 358.121 43.5703C358.34 43.2161 358.452 42.8073 358.457 42.3437C358.452 41.8854 358.342 41.4844 358.129 41.1406C357.915 40.7917 357.618 40.5234 357.238 40.3359C356.858 40.1432 356.421 40.0469 355.926 40.0469C355.421 40.0469 354.975 40.1432 354.59 40.3359C354.21 40.5234 353.913 40.7917 353.699 41.1406C353.491 41.4844 353.389 41.8854 353.395 42.3437C353.389 42.8073 353.493 43.2161 353.707 43.5703C353.926 43.9193 354.225 44.1953 354.605 44.3984C354.991 44.5964 355.431 44.6953 355.926 44.6953ZM374.119 51.5625L364.955 42.4141L366.721 40.6406L375.877 49.7969L374.119 51.5625ZM366.721 51.5625L364.955 49.7969L374.119 40.6406L375.877 42.4141L366.721 51.5625ZM384.797 37.7812C385.563 37.7865 386.307 37.9219 387.031 38.1875C387.76 38.4479 388.417 38.875 389 39.4687C389.583 40.0573 390.047 40.8464 390.391 41.8359C390.734 42.8255 390.906 44.0495 390.906 45.5078C390.911 46.8828 390.766 48.112 390.469 49.1953C390.177 50.2734 389.758 51.1849 389.211 51.9297C388.664 52.6745 388.005 53.2422 387.234 53.6328C386.464 54.0234 385.596 54.2187 384.633 54.2187C383.622 54.2187 382.727 54.0208 381.945 53.625C381.169 53.2292 380.542 52.6875 380.063 52C379.583 51.3125 379.289 50.526 379.18 49.6406H382.031C382.177 50.276 382.474 50.7812 382.922 51.1562C383.375 51.526 383.945 51.7109 384.633 51.7109C385.742 51.7109 386.596 51.2292 387.195 50.2656C387.794 49.3021 388.094 47.9635 388.094 46.25H387.984C387.729 46.7083 387.398 47.1042 386.992 47.4375C386.586 47.7656 386.125 48.0182 385.609 48.1953C385.099 48.3724 384.557 48.4609 383.984 48.4609C383.047 48.4609 382.203 48.237 381.453 47.7891C380.708 47.3411 380.117 46.7266 379.68 45.9453C379.247 45.1641 379.029 44.2708 379.023 43.2656C379.023 42.224 379.263 41.2891 379.742 40.4609C380.227 39.6276 380.901 38.9714 381.766 38.4922C382.63 38.0078 383.641 37.7708 384.797 37.7812ZM384.805 40.125C384.242 40.125 383.734 40.263 383.281 40.5391C382.833 40.8099 382.479 41.1797 382.219 41.6484C381.964 42.112 381.836 42.6302 381.836 43.2031C381.841 43.7708 381.969 44.2865 382.219 44.75C382.474 45.2135 382.82 45.5807 383.258 45.8516C383.701 46.1224 384.206 46.2578 384.773 46.2578C385.195 46.2578 385.589 46.1771 385.953 46.0156C386.318 45.8542 386.635 45.6302 386.906 45.3438C387.182 45.0521 387.396 44.7214 387.547 44.3516C387.703 43.9818 387.779 43.5911 387.773 43.1797C387.773 42.6328 387.643 42.1276 387.383 41.6641C387.128 41.2005 386.776 40.8281 386.328 40.5469C385.885 40.2656 385.378 40.125 384.805 40.125ZM399.422 54.3047C398.135 54.3047 397.031 53.9792 396.109 53.3281C395.193 52.6719 394.487 51.7266 393.992 50.4922C393.503 49.2526 393.258 47.7604 393.258 46.0156C393.263 44.2708 393.51 42.7865 394 41.5625C394.495 40.3333 395.201 39.3958 396.117 38.75C397.039 38.1042 398.141 37.7812 399.422 37.7812C400.703 37.7812 401.805 38.1042 402.727 38.75C403.648 39.3958 404.354 40.3333 404.844 41.5625C405.339 42.7917 405.586 44.276 405.586 46.0156C405.586 47.7656 405.339 49.2604 404.844 50.5C404.354 51.7344 403.648 52.6771 402.727 53.3281C401.81 53.9792 400.708 54.3047 399.422 54.3047ZM399.422 51.8594C400.422 51.8594 401.211 51.3672 401.789 50.3828C402.372 49.3932 402.664 47.9375 402.664 46.0156C402.664 44.7448 402.531 43.6771 402.266 42.8125C402 41.9479 401.625 41.2969 401.141 40.8594C400.656 40.4167 400.083 40.1953 399.422 40.1953C398.427 40.1953 397.641 40.6901 397.063 41.6797C396.484 42.6641 396.193 44.1094 396.188 46.0156C396.182 47.2917 396.31 48.3646 396.57 49.2344C396.836 50.1042 397.211 50.7604 397.695 51.2031C398.18 51.6406 398.755 51.8594 399.422 51.8594Z" fill="white" fill-opacity="0.4"/>
</svg>
