<svg width="225" height="205" viewBox="0 0 225 205" fill="none" xmlns="http://www.w3.org/2000/svg">
<rect x="31" y="65" width="169" height="140" rx="20" fill="url(#paint0_linear_3135_7767)"/>
<rect x="31" y="65" width="169" height="140" rx="20" fill="black" fill-opacity="0.1"/>
<g filter="url(#filter0_d_3135_7767)">
<rect x="85" y="49" width="90" height="118" rx="15" fill="white"/>
</g>
<g filter="url(#filter1_d_3135_7767)">
<rect x="30" y="30" width="90" height="140" rx="15" fill="white"/>
</g>
<path d="M7.46762 137.209C6.15125 125.361 15.4251 115 27.3453 115H62C65.2828 115 68.5152 115.808 71.4118 117.353L85.0882 124.647C87.9848 126.192 91.2172 127 94.5 127H202.272C214.327 127 223.643 137.586 222.11 149.543L217.238 187.543C215.958 197.524 207.463 205 197.4 205H32.9008C22.7099 205 14.1486 197.337 13.0232 187.209L7.46762 137.209Z" fill="url(#paint1_linear_3135_7767)"/>
<defs>
<filter id="filter0_d_3135_7767" x="55" y="19" width="150" height="178" filterUnits="userSpaceOnUse" color-interpolation-filters="sRGB">
<feFlood flood-opacity="0" result="BackgroundImageFix"/>
<feColorMatrix in="SourceAlpha" type="matrix" values="0 0 0 0 0 0 0 0 0 0 0 0 0 0 0 0 0 0 127 0" result="hardAlpha"/>
<feOffset/>
<feGaussianBlur stdDeviation="15"/>
<feComposite in2="hardAlpha" operator="out"/>
<feColorMatrix type="matrix" values="0 0 0 0 0 0 0 0 0 0 0 0 0 0 0 0 0 0 0.05 0"/>
<feBlend mode="normal" in2="BackgroundImageFix" result="effect1_dropShadow_3135_7767"/>
<feBlend mode="normal" in="SourceGraphic" in2="effect1_dropShadow_3135_7767" result="shape"/>
</filter>
<filter id="filter1_d_3135_7767" x="0" y="0" width="150" height="200" filterUnits="userSpaceOnUse" color-interpolation-filters="sRGB">
<feFlood flood-opacity="0" result="BackgroundImageFix"/>
<feColorMatrix in="SourceAlpha" type="matrix" values="0 0 0 0 0 0 0 0 0 0 0 0 0 0 0 0 0 0 127 0" result="hardAlpha"/>
<feOffset/>
<feGaussianBlur stdDeviation="15"/>
<feComposite in2="hardAlpha" operator="out"/>
<feColorMatrix type="matrix" values="0 0 0 0 0 0 0 0 0 0 0 0 0 0 0 0 0 0 0.05 0"/>
<feBlend mode="normal" in2="BackgroundImageFix" result="effect1_dropShadow_3135_7767"/>
<feBlend mode="normal" in="SourceGraphic" in2="effect1_dropShadow_3135_7767" result="shape"/>
</filter>
<linearGradient id="paint0_linear_3135_7767" x1="115.5" y1="65" x2="115.5" y2="205" gradientUnits="userSpaceOnUse">
<stop stop-color="#FFA44E"/>
<stop offset="1" stop-color="#FB27A6"/>
</linearGradient>
<linearGradient id="paint1_linear_3135_7767" x1="115" y1="115" x2="115" y2="205" gradientUnits="userSpaceOnUse">
<stop stop-color="#FFA44E"/>
<stop offset="1" stop-color="#FB27A6"/>
</linearGradient>
</defs>
</svg>
