<svg width="225" height="205" viewBox="0 0 225 205" fill="none" xmlns="http://www.w3.org/2000/svg">
<rect x="30" y="65" width="170" height="140" rx="20" fill="url(#paint0_linear_3135_7764)"/>
<rect x="30" y="65" width="170" height="140" rx="20" fill="black" fill-opacity="0.1"/>
<g filter="url(#filter0_d_3135_7764)">
<rect x="85" y="49" width="90" height="118" rx="15" fill="white"/>
</g>
<g filter="url(#filter1_d_3135_7764)">
<rect x="30" y="30" width="90" height="140" rx="15" fill="white"/>
</g>
<path d="M15 75C15 63.9543 23.9543 55 35 55H69.396C74.2943 55 79.0223 56.7976 82.6833 60.0518L93.8167 69.9482C97.4777 73.2024 102.206 75 107.104 75H195C206.046 75 215 83.9543 215 95V185C215 196.046 206.046 205 195 205H35C23.9543 205 15 196.046 15 185V75Z" fill="url(#paint1_linear_3135_7764)"/>
<defs>
<filter id="filter0_d_3135_7764" x="55" y="19" width="150" height="178" filterUnits="userSpaceOnUse" color-interpolation-filters="sRGB">
<feFlood flood-opacity="0" result="BackgroundImageFix"/>
<feColorMatrix in="SourceAlpha" type="matrix" values="0 0 0 0 0 0 0 0 0 0 0 0 0 0 0 0 0 0 127 0" result="hardAlpha"/>
<feOffset/>
<feGaussianBlur stdDeviation="15"/>
<feComposite in2="hardAlpha" operator="out"/>
<feColorMatrix type="matrix" values="0 0 0 0 0 0 0 0 0 0 0 0 0 0 0 0 0 0 0.05 0"/>
<feBlend mode="normal" in2="BackgroundImageFix" result="effect1_dropShadow_3135_7764"/>
<feBlend mode="normal" in="SourceGraphic" in2="effect1_dropShadow_3135_7764" result="shape"/>
</filter>
<filter id="filter1_d_3135_7764" x="0" y="0" width="150" height="200" filterUnits="userSpaceOnUse" color-interpolation-filters="sRGB">
<feFlood flood-opacity="0" result="BackgroundImageFix"/>
<feColorMatrix in="SourceAlpha" type="matrix" values="0 0 0 0 0 0 0 0 0 0 0 0 0 0 0 0 0 0 127 0" result="hardAlpha"/>
<feOffset/>
<feGaussianBlur stdDeviation="15"/>
<feComposite in2="hardAlpha" operator="out"/>
<feColorMatrix type="matrix" values="0 0 0 0 0 0 0 0 0 0 0 0 0 0 0 0 0 0 0.05 0"/>
<feBlend mode="normal" in2="BackgroundImageFix" result="effect1_dropShadow_3135_7764"/>
<feBlend mode="normal" in="SourceGraphic" in2="effect1_dropShadow_3135_7764" result="shape"/>
</filter>
<linearGradient id="paint0_linear_3135_7764" x1="115" y1="65" x2="115" y2="205" gradientUnits="userSpaceOnUse">
<stop stop-color="#FFA44E"/>
<stop offset="1" stop-color="#FB27A6"/>
</linearGradient>
<linearGradient id="paint1_linear_3135_7764" x1="115" y1="55" x2="115" y2="205" gradientUnits="userSpaceOnUse">
<stop stop-color="#FFA44E"/>
<stop offset="1" stop-color="#FB27A6"/>
</linearGradient>
</defs>
</svg>
