<svg width="32" height="32" viewBox="0 0 32 32" fill="none" xmlns="http://www.w3.org/2000/svg">
<path d="M16 32C24.8366 32 32 24.8366 32 16C32 7.16344 24.8366 0 16 0C7.16344 0 0 7.16344 0 16C0 24.8366 7.16344 32 16 32Z" fill="url(#paint0_linear_1_68)"/>
<path d="M20.059 13V14.6745H24.2855V17.6429C24.5247 20.1547 22.571 22.362 19.9394 22.5903C17.3078 22.8187 14.9953 20.9539 14.756 18.4421C14.7162 18.1757 14.7162 17.9093 14.756 17.6429V14.7887H13.0016V17.6429C12.9219 21.0681 15.7528 23.9223 19.3413 23.9984C22.9298 24.0745 25.9203 21.3725 26 17.9474C26 17.8332 26 17.7571 26 17.6429V13.0381L20.059 13Z" fill="white"/>
<path d="M12.4593 8.79024C15.0909 8.79024 17.244 10.8453 17.244 13.3571V16.2113H18.9984V13.3571C19.0781 9.93195 16.2472 7.07768 12.6587 7.00157C9.07016 6.92546 6.07974 9.62749 6 13.0526C6 13.1668 6 13.2429 6 13.3571V18H11.9808V16.3255H7.71451V13.3571C7.71451 10.8453 9.86761 8.79024 12.4593 8.79024Z" fill="white"/>
<defs>
<linearGradient id="paint0_linear_1_68" x1="4.6863" y1="4.6863" x2="27.3137" y2="27.3137" gradientUnits="userSpaceOnUse">
<stop stop-color="#006AD2"/>
<stop offset="1" stop-color="#003EBF"/>
</linearGradient>
</defs>
</svg>
