<svg width="52" height="44" viewBox="0 0 52 44" fill="none" xmlns="http://www.w3.org/2000/svg">
<path d="M36.8642 15.1852V19.5309H47.3333V27.2346C47.9259 33.7531 43.0864 39.4815 36.5679 40.0741C30.0494 40.6667 24.321 35.8272 23.7284 29.3086C23.6296 28.6173 23.6296 27.9259 23.7284 27.2346V19.8272H19.3827V27.2346C19.1852 36.1235 26.1975 43.5309 35.0864 43.7284C43.9753 43.9259 51.3827 36.9136 51.5802 28.0247C51.5802 27.7284 51.5802 27.5309 51.5802 27.2346V15.284L36.8642 15.1852Z" fill="black"/>
<path d="M16.4198 4.91358C22.9383 4.91358 28.2716 10.2469 28.2716 16.7654V24.1728H32.6173V16.7654C32.8148 7.87654 25.8025 0.469136 16.9136 0.271605C8.02469 0.0740742 0.617285 7.08642 0.419754 15.9753C0.419754 16.2716 0.419754 16.4691 0.419754 16.7654V28.8148H15.2346V24.4691H4.66667V16.7654C4.66667 10.2469 10 4.91358 16.4198 4.91358Z" fill="black"/>
</svg>
