<svg width="32" height="32" viewBox="0 0 32 32" fill="none" xmlns="http://www.w3.org/2000/svg">
<path fill-rule="evenodd" clip-rule="evenodd" d="M32 16C32 24.8366 24.8366 32 16 32C7.16344 32 0 24.8366 0 16C0 7.16344 7.16344 0 16 0C24.8366 0 32 7.16344 32 16ZM17.244 13.3571C17.244 10.8453 15.0909 8.79024 12.4593 8.79024C9.86761 8.79024 7.71451 10.8453 7.71451 13.3571V16.3255H11.9808V18H6V13.3571V13.0526C6.07974 9.62749 9.07016 6.92546 12.6587 7.00157C16.2472 7.07768 19.0781 9.93195 18.9984 13.3571V16.2113H17.244V13.3571ZM20.059 14.6745V13L26 13.0381V17.6429V17.9474C25.9203 21.3725 22.9298 24.0745 19.3413 23.9984C15.7528 23.9223 12.9219 21.0681 13.0016 17.6429V14.7887H14.756V17.6429C14.7162 17.9093 14.7162 18.1757 14.756 18.4421C14.9953 20.9539 17.3078 22.8187 19.9394 22.5903C22.571 22.362 24.5247 20.1547 24.2855 17.6429V14.6745H20.059Z" fill="url(#paint0_linear_1_68)"/>
<defs>
<linearGradient id="paint0_linear_1_68" x1="4.6863" y1="4.6863" x2="27.3137" y2="27.3137" gradientUnits="userSpaceOnUse">
<stop stop-color="#006AD2"/>
<stop offset="1" stop-color="#003EBF"/>
</linearGradient>
</defs>
</svg>
