<svg width="32" height="32" viewBox="0 0 32 32" fill="none" xmlns="http://www.w3.org/2000/svg">
<path d="M21.0886 11.8235V14.286H27.4282V18.6514C27.7871 22.3451 24.8565 25.5912 20.9091 25.927C16.9618 26.2627 13.4929 23.5204 13.134 19.8267C13.0742 19.4349 13.0742 19.0431 13.134 18.6514V14.4539H10.5025V18.6514C10.3828 23.6883 14.6292 27.8858 20.012 27.9977C25.3948 28.1096 29.8804 24.136 30 19.0991C30 18.9312 30 18.8193 30 18.6514V11.8795L21.0886 11.8235Z" fill="#24292E"/>
<path d="M9.68896 5.63271C13.6363 5.63271 16.866 8.65487 16.866 12.3486V16.5461H19.4975V12.3486C19.6172 7.31169 15.3708 3.11424 9.988 3.00231C4.60525 2.89038 0.119617 6.86396 0 11.9009C0 12.0688 0 12.1807 0 12.3486V19.1765H8.97126V16.714H2.57176V12.3486C2.57176 8.65487 5.80141 5.63271 9.68896 5.63271Z" fill="#24292E"/>
</svg>
