<svg width="32" height="32" viewBox="0 0 32 32" fill="none" xmlns="http://www.w3.org/2000/svg">
<path d="M22.7954 11.2667V13.9662H29.3436V18.7517C29.7143 22.8009 26.6873 26.3593 22.61 26.7274C18.5328 27.0956 14.9498 24.0893 14.5791 20.0401C14.5174 19.6106 14.5174 19.1811 14.5791 18.7517V14.1503H11.861V18.7517C11.7374 24.2734 16.1236 28.8748 21.6834 28.9975C27.2432 29.1202 31.8764 24.7642 32 19.2425C32 19.0584 32 18.9357 32 18.7517V11.3281L22.7954 11.2667Z" fill="#24292E"/>
<path d="M10.0077 4.88608C14.0849 4.88608 17.4208 8.1991 17.4208 12.2483V16.8497H20.139V12.2483C20.2625 6.72664 15.8764 2.12523 10.3166 2.00253C4.75676 1.87983 0.123552 6.23583 0 11.7575C0 11.9416 0 12.0643 0 12.2483V19.7333H9.26641V17.0338H2.65637V12.2483C2.65637 8.1991 5.99228 4.88608 10.0077 4.88608Z" fill="#24292E"/>
</svg>
