<svg width="400" height="400" viewBox="0 0 400 400" fill="none" xmlns="http://www.w3.org/2000/svg">
<g clip-path="url(#clip0_124_16)">
<g filter="url(#filter0_in_124_16)">
<circle cx="200" cy="200" r="200" fill="#DC2877"/>
</g>
<rect width="147" height="50" transform="translate(0 175)" fill="white"/>
<path d="M26.9631 195C26.8873 194.053 26.5322 193.314 25.8977 192.784C25.2727 192.254 24.321 191.989 23.0426 191.989C22.2282 191.989 21.5606 192.088 21.0398 192.287C20.5284 192.476 20.1496 192.737 19.9034 193.068C19.6572 193.4 19.5294 193.778 19.5199 194.205C19.5009 194.555 19.5625 194.872 19.7045 195.156C19.8561 195.431 20.0928 195.682 20.4148 195.909C20.7367 196.127 21.1487 196.326 21.6506 196.506C22.1525 196.686 22.7491 196.847 23.4403 196.989L25.8267 197.5C27.4366 197.841 28.8144 198.291 29.9602 198.849C31.1061 199.408 32.0436 200.066 32.7727 200.824C33.5019 201.572 34.0369 202.415 34.3778 203.352C34.7282 204.29 34.9081 205.312 34.9176 206.42C34.9081 208.333 34.4299 209.953 33.483 211.278C32.536 212.604 31.1818 213.613 29.4205 214.304C27.6686 214.995 25.5616 215.341 23.0994 215.341C20.571 215.341 18.3646 214.967 16.4801 214.219C14.6051 213.471 13.1468 212.32 12.1051 210.767C11.0729 209.205 10.5521 207.206 10.5426 204.773H18.0426C18.09 205.663 18.3125 206.411 18.7102 207.017C19.108 207.623 19.6667 208.082 20.3864 208.395C21.1155 208.707 21.982 208.864 22.9858 208.864C23.8286 208.864 24.5341 208.759 25.1023 208.551C25.6705 208.343 26.1013 208.054 26.3949 207.685C26.6884 207.315 26.84 206.894 26.8494 206.42C26.84 205.975 26.6932 205.587 26.4091 205.256C26.1345 204.915 25.6799 204.612 25.0455 204.347C24.411 204.072 23.554 203.816 22.4744 203.58L19.5767 202.955C17.0009 202.396 14.9697 201.463 13.483 200.156C12.0057 198.84 11.2718 197.045 11.2812 194.773C11.2718 192.926 11.7642 191.312 12.7585 189.929C13.7623 188.537 15.1496 187.453 16.9205 186.676C18.7008 185.9 20.7415 185.511 23.0426 185.511C25.3911 185.511 27.4223 185.904 29.1364 186.69C30.8504 187.476 32.1714 188.584 33.0994 190.014C34.0369 191.435 34.5104 193.097 34.5199 195H26.9631ZM45.8196 185.909V215H37.9219V185.909H45.8196ZM60.7557 215H49.5625V185.909H60.642C63.6345 185.909 66.2197 186.491 68.3977 187.656C70.5852 188.812 72.2708 190.478 73.4545 192.656C74.6477 194.825 75.2443 197.424 75.2443 200.455C75.2443 203.485 74.6525 206.089 73.4688 208.267C72.285 210.436 70.6089 212.102 68.4403 213.267C66.2718 214.422 63.7102 215 60.7557 215ZM57.4602 208.295H60.4716C61.911 208.295 63.1373 208.063 64.1506 207.599C65.1733 207.135 65.9498 206.335 66.4801 205.199C67.0199 204.062 67.2898 202.481 67.2898 200.455C67.2898 198.428 67.0152 196.847 66.4659 195.71C65.9261 194.574 65.1307 193.774 64.0795 193.31C63.0379 192.846 61.7595 192.614 60.2443 192.614H57.4602V208.295ZM78.8984 215V185.909H99.8643V192.273H86.7962V197.273H98.7848V203.636H86.7962V208.636H99.8075V215H78.8984ZM111.75 215V185.909H124.364C126.58 185.909 128.44 186.207 129.946 186.804C131.461 187.401 132.602 188.243 133.369 189.332C134.146 190.421 134.534 191.705 134.534 193.182C134.534 194.252 134.297 195.227 133.824 196.108C133.36 196.989 132.706 197.727 131.864 198.324C131.021 198.911 130.036 199.318 128.909 199.545V199.83C130.159 199.877 131.295 200.194 132.318 200.781C133.341 201.359 134.155 202.159 134.761 203.182C135.367 204.195 135.67 205.388 135.67 206.761C135.67 208.352 135.254 209.768 134.42 211.009C133.597 212.249 132.422 213.224 130.898 213.935C129.373 214.645 127.555 215 125.443 215H111.75ZM119.648 208.693H123.341C124.667 208.693 125.661 208.447 126.324 207.955C126.987 207.453 127.318 206.714 127.318 205.739C127.318 205.057 127.162 204.479 126.849 204.006C126.537 203.532 126.092 203.172 125.514 202.926C124.946 202.68 124.259 202.557 123.455 202.557H119.648V208.693ZM119.648 197.67H122.886C123.578 197.67 124.188 197.562 124.719 197.344C125.249 197.126 125.661 196.813 125.955 196.406C126.258 195.99 126.409 195.483 126.409 194.886C126.409 193.987 126.087 193.3 125.443 192.827C124.799 192.344 123.985 192.102 123 192.102H119.648V197.67Z" fill="#DC2877"/>
<rect width="253" height="2" transform="translate(147 199)" fill="white"/>
<path d="M86.0953 142.515C84.3552 142.515 82.8045 142.213 81.4433 141.609C80.082 140.994 79.0048 140.088 78.2117 138.893C77.4305 137.685 77.0399 136.182 77.0399 134.383C77.0399 132.868 77.318 131.595 77.8744 130.565C78.4307 129.536 79.1883 128.707 80.1471 128.08C81.1059 127.452 82.1949 126.979 83.4142 126.659C84.6452 126.339 85.9355 126.115 87.2849 125.984C88.8711 125.819 90.1495 125.665 91.1201 125.523C92.0908 125.369 92.7951 125.144 93.233 124.848C93.671 124.552 93.89 124.114 93.89 123.534V123.428C93.89 122.303 93.5349 121.433 92.8247 120.817C92.1263 120.202 91.132 119.894 89.8417 119.894C88.4804 119.894 87.3973 120.196 86.5924 120.8C85.7875 121.392 85.2548 122.137 84.9944 123.037L77.9987 122.469C78.3538 120.812 79.0522 119.379 80.0938 118.172C81.1355 116.953 82.479 116.018 84.1244 115.366C85.7816 114.704 87.6992 114.372 89.8772 114.372C91.3924 114.372 92.8424 114.55 94.2274 114.905C95.6241 115.26 96.8611 115.81 97.9383 116.556C99.0273 117.302 99.8855 118.261 100.513 119.433C101.14 120.593 101.454 121.983 101.454 123.605V142H94.2806V138.218H94.0676C93.6296 139.07 93.0436 139.822 92.3097 140.473C91.5758 141.112 90.694 141.615 89.6642 141.982C88.6343 142.337 87.4447 142.515 86.0953 142.515ZM88.2615 137.295C89.3741 137.295 90.3566 137.076 91.2089 136.638C92.0612 136.188 92.73 135.584 93.2153 134.827C93.7006 134.069 93.9433 133.211 93.9433 132.252V129.358C93.7065 129.512 93.381 129.654 92.9667 129.784C92.5642 129.902 92.1085 130.015 91.5995 130.121C91.0905 130.216 90.5815 130.305 90.0725 130.388C89.5635 130.459 89.1019 130.524 88.6876 130.583C87.7998 130.713 87.0245 130.92 86.3616 131.205C85.6987 131.489 85.1838 131.873 84.8169 132.359C84.4499 132.832 84.2664 133.424 84.2664 134.134C84.2664 135.164 84.6393 135.951 85.385 136.496C86.1426 137.028 87.1014 137.295 88.2615 137.295ZM106.322 152.227V114.727H113.78V119.308H114.117C114.448 118.574 114.928 117.829 115.555 117.071C116.194 116.302 117.023 115.662 118.041 115.153C119.071 114.633 120.349 114.372 121.876 114.372C123.865 114.372 125.7 114.893 127.38 115.935C129.061 116.964 130.405 118.521 131.411 120.604C132.417 122.676 132.92 125.274 132.92 128.399C132.92 131.441 132.429 134.01 131.446 136.105C130.476 138.188 129.15 139.769 127.469 140.846C125.8 141.911 123.93 142.444 121.858 142.444C120.391 142.444 119.142 142.201 118.112 141.716C117.094 141.231 116.259 140.621 115.608 139.887C114.957 139.141 114.46 138.39 114.117 137.632H113.886V152.227H106.322ZM113.726 128.364C113.726 129.985 113.951 131.4 114.401 132.607C114.851 133.815 115.502 134.756 116.354 135.43C117.206 136.093 118.242 136.425 119.461 136.425C120.692 136.425 121.734 136.087 122.586 135.413C123.439 134.726 124.084 133.779 124.522 132.572C124.972 131.353 125.196 129.95 125.196 128.364C125.196 126.789 124.977 125.404 124.54 124.209C124.102 123.013 123.456 122.078 122.604 121.403C121.752 120.729 120.704 120.391 119.461 120.391C118.23 120.391 117.189 120.717 116.336 121.368C115.496 122.019 114.851 122.942 114.401 124.138C113.951 125.333 113.726 126.742 113.726 128.364ZM136.963 142V114.727H144.296V119.486H144.58C145.077 117.793 145.912 116.515 147.084 115.651C148.255 114.775 149.605 114.337 151.132 114.337C151.511 114.337 151.919 114.36 152.357 114.408C152.795 114.455 153.18 114.52 153.511 114.603V121.315C153.156 121.208 152.665 121.113 152.037 121.031C151.41 120.948 150.836 120.906 150.315 120.906C149.202 120.906 148.208 121.149 147.332 121.634C146.468 122.108 145.781 122.771 145.272 123.623C144.775 124.475 144.527 125.458 144.527 126.57V142H136.963ZM156.422 142V114.727H163.986V142H156.422ZM160.222 111.212C159.097 111.212 158.132 110.839 157.327 110.093C156.534 109.335 156.138 108.43 156.138 107.376C156.138 106.335 156.534 105.441 157.327 104.695C158.132 103.938 159.097 103.559 160.222 103.559C161.346 103.559 162.305 103.938 163.098 104.695C163.903 105.441 164.305 106.335 164.305 107.376C164.305 108.43 163.903 109.335 163.098 110.093C162.305 110.839 161.346 111.212 160.222 111.212ZM176.609 105.636V142H169.045V105.636H176.609ZM181.668 152.227V114.727H189.125V119.308H189.463C189.794 118.574 190.273 117.829 190.901 117.071C191.54 116.302 192.369 115.662 193.387 115.153C194.416 114.633 195.695 114.372 197.222 114.372C199.21 114.372 201.045 114.893 202.726 115.935C204.407 116.964 205.751 118.521 206.757 120.604C207.763 122.676 208.266 125.274 208.266 128.399C208.266 131.441 207.775 134.01 206.792 136.105C205.822 138.188 204.496 139.769 202.815 140.846C201.146 141.911 199.276 142.444 197.204 142.444C195.736 142.444 194.487 142.201 193.458 141.716C192.44 141.231 191.605 140.621 190.954 139.887C190.303 139.141 189.806 138.39 189.463 137.632H189.232V152.227H181.668ZM189.072 128.364C189.072 129.985 189.297 131.4 189.747 132.607C190.197 133.815 190.848 134.756 191.7 135.43C192.552 136.093 193.588 136.425 194.807 136.425C196.038 136.425 197.08 136.087 197.932 135.413C198.784 134.726 199.429 133.779 199.867 132.572C200.317 131.353 200.542 129.95 200.542 128.364C200.542 126.789 200.323 125.404 199.885 124.209C199.447 123.013 198.802 122.078 197.95 121.403C197.098 120.729 196.05 120.391 194.807 120.391C193.576 120.391 192.534 120.717 191.682 121.368C190.842 122.019 190.197 122.942 189.747 124.138C189.297 125.333 189.072 126.742 189.072 128.364ZM219.872 105.636V142H212.309V105.636H219.872ZM232.709 142.515C230.968 142.515 229.418 142.213 228.057 141.609C226.695 140.994 225.618 140.088 224.825 138.893C224.044 137.685 223.653 136.182 223.653 134.383C223.653 132.868 223.931 131.595 224.488 130.565C225.044 129.536 225.802 128.707 226.76 128.08C227.719 127.452 228.808 126.979 230.027 126.659C231.258 126.339 232.549 126.115 233.898 125.984C235.484 125.819 236.763 125.665 237.733 125.523C238.704 125.369 239.408 125.144 239.846 124.848C240.284 124.552 240.503 124.114 240.503 123.534V123.428C240.503 122.303 240.148 121.433 239.438 120.817C238.74 120.202 237.745 119.894 236.455 119.894C235.094 119.894 234.011 120.196 233.206 120.8C232.401 121.392 231.868 122.137 231.608 123.037L224.612 122.469C224.967 120.812 225.665 119.379 226.707 118.172C227.749 116.953 229.092 116.018 230.738 115.366C232.395 114.704 234.312 114.372 236.491 114.372C238.006 114.372 239.456 114.55 240.841 114.905C242.237 115.26 243.474 115.81 244.552 116.556C245.641 117.302 246.499 118.261 247.126 119.433C247.754 120.593 248.067 121.983 248.067 123.605V142H240.894V138.218H240.681C240.243 139.07 239.657 139.822 238.923 140.473C238.189 141.112 237.307 141.615 236.277 141.982C235.248 142.337 234.058 142.515 232.709 142.515ZM234.875 137.295C235.987 137.295 236.97 137.076 237.822 136.638C238.674 136.188 239.343 135.584 239.829 134.827C240.314 134.069 240.557 133.211 240.557 132.252V129.358C240.32 129.512 239.994 129.654 239.58 129.784C239.178 129.902 238.722 130.015 238.213 130.121C237.704 130.216 237.195 130.305 236.686 130.388C236.177 130.459 235.715 130.524 235.301 130.583C234.413 130.713 233.638 130.92 232.975 131.205C232.312 131.489 231.797 131.873 231.43 132.359C231.063 132.832 230.88 133.424 230.88 134.134C230.88 135.164 231.253 135.951 231.998 136.496C232.756 137.028 233.715 137.295 234.875 137.295ZM256.629 152.227C255.67 152.227 254.77 152.15 253.93 151.996C253.101 151.854 252.415 151.671 251.87 151.446L253.575 145.8C254.462 146.072 255.261 146.22 255.972 146.244C256.694 146.267 257.315 146.102 257.836 145.746C258.369 145.391 258.801 144.788 259.132 143.935L259.576 142.781L249.793 114.727H257.747L263.394 134.756H263.678L269.377 114.727H277.385L266.785 144.947C266.276 146.415 265.583 147.694 264.707 148.783C263.843 149.884 262.748 150.73 261.423 151.322C260.097 151.925 258.499 152.227 256.629 152.227ZM291.806 142.533C289 142.533 286.586 141.964 284.562 140.828C282.549 139.68 280.999 138.058 279.91 135.963C278.821 133.856 278.276 131.364 278.276 128.488C278.276 125.683 278.821 123.22 279.91 121.102C280.999 118.983 282.531 117.331 284.508 116.148C286.497 114.964 288.829 114.372 291.504 114.372C293.303 114.372 294.978 114.662 296.529 115.242C298.091 115.81 299.453 116.669 300.613 117.817C301.785 118.965 302.696 120.409 303.347 122.149C303.998 123.877 304.324 125.902 304.324 128.222V130.299H281.294V125.612H297.204C297.204 124.522 296.967 123.558 296.493 122.717C296.02 121.877 295.363 121.22 294.522 120.746C293.694 120.261 292.729 120.018 291.628 120.018C290.48 120.018 289.462 120.285 288.574 120.817C287.698 121.338 287.012 122.043 286.515 122.93C286.017 123.806 285.763 124.783 285.751 125.86V130.317C285.751 131.666 286 132.832 286.497 133.815C287.006 134.797 287.722 135.555 288.645 136.087C289.569 136.62 290.664 136.886 291.93 136.886C292.771 136.886 293.54 136.768 294.238 136.531C294.937 136.295 295.535 135.939 296.032 135.466C296.529 134.992 296.908 134.412 297.168 133.726L304.164 134.188C303.809 135.868 303.081 137.336 301.98 138.591C300.891 139.834 299.482 140.804 297.754 141.503C296.038 142.189 294.055 142.533 291.806 142.533ZM308.26 142V114.727H315.593V119.486H315.877C316.374 117.793 317.209 116.515 318.38 115.651C319.552 114.775 320.902 114.337 322.429 114.337C322.807 114.337 323.216 114.36 323.654 114.408C324.092 114.455 324.477 114.52 324.808 114.603V121.315C324.453 121.208 323.962 121.113 323.334 121.031C322.707 120.948 322.133 120.906 321.612 120.906C320.499 120.906 319.505 121.149 318.629 121.634C317.765 122.108 317.078 122.771 316.569 123.623C316.072 124.475 315.824 125.458 315.824 126.57V142H308.26Z" fill="white"/>
<path d="M96.2256 275.52C96.2256 274.4 96.4456 273.42 96.8856 272.58C97.339 271.727 97.959 271.073 98.7456 270.62C99.5456 270.153 100.446 269.92 101.446 269.92C102.486 269.92 103.379 270.16 104.126 270.64C104.886 271.12 105.432 271.733 105.766 272.48V270.08H107.166V281H105.766V278.58C105.419 279.327 104.866 279.947 104.106 280.44C103.359 280.92 102.466 281.16 101.426 281.16C100.439 281.16 99.5456 280.927 98.7456 280.46C97.959 279.993 97.339 279.333 96.8856 278.48C96.4456 277.627 96.2256 276.64 96.2256 275.52ZM105.766 275.54C105.766 274.66 105.586 273.887 105.226 273.22C104.866 272.553 104.372 272.04 103.746 271.68C103.132 271.32 102.452 271.14 101.706 271.14C100.932 271.14 100.239 271.313 99.6256 271.66C99.0123 272.007 98.5256 272.513 98.1656 273.18C97.819 273.833 97.6456 274.613 97.6456 275.52C97.6456 276.413 97.819 277.2 98.1656 277.88C98.5256 278.547 99.0123 279.06 99.6256 279.42C100.239 279.767 100.932 279.94 101.706 279.94C102.452 279.94 103.132 279.76 103.746 279.4C104.372 279.04 104.866 278.527 105.226 277.86C105.586 277.193 105.766 276.42 105.766 275.54ZM121.05 269.88C121.877 269.88 122.617 270.053 123.27 270.4C123.937 270.747 124.457 271.28 124.83 272C125.217 272.707 125.41 273.573 125.41 274.6V281H124.03V274.76C124.03 273.573 123.73 272.667 123.13 272.04C122.543 271.413 121.737 271.1 120.71 271.1C119.657 271.1 118.817 271.433 118.19 272.1C117.563 272.767 117.25 273.747 117.25 275.04V281H115.85V266.2H117.25V271.94C117.597 271.287 118.103 270.78 118.77 270.42C119.45 270.06 120.21 269.88 121.05 269.88ZM133.286 281.16C132.26 281.16 131.333 280.933 130.506 280.48C129.693 280.013 129.046 279.36 128.566 278.52C128.1 277.667 127.866 276.673 127.866 275.54C127.866 274.407 128.106 273.42 128.586 272.58C129.066 271.727 129.72 271.073 130.546 270.62C131.373 270.153 132.3 269.92 133.326 269.92C134.353 269.92 135.28 270.153 136.106 270.62C136.946 271.073 137.6 271.727 138.066 272.58C138.546 273.42 138.786 274.407 138.786 275.54C138.786 276.66 138.546 277.647 138.066 278.5C137.586 279.353 136.926 280.013 136.086 280.48C135.246 280.933 134.313 281.16 133.286 281.16ZM133.286 279.94C134.006 279.94 134.673 279.78 135.286 279.46C135.9 279.127 136.393 278.633 136.766 277.98C137.153 277.313 137.346 276.5 137.346 275.54C137.346 274.58 137.16 273.773 136.786 273.12C136.413 272.453 135.92 271.96 135.306 271.64C134.693 271.307 134.026 271.14 133.306 271.14C132.586 271.14 131.92 271.307 131.306 271.64C130.693 271.96 130.2 272.453 129.826 273.12C129.466 273.773 129.286 274.58 129.286 275.54C129.286 276.5 129.466 277.313 129.826 277.98C130.2 278.633 130.686 279.127 131.286 279.46C131.9 279.78 132.566 279.94 133.286 279.94ZM142.718 272.5C143.078 271.74 143.632 271.12 144.378 270.64C145.138 270.16 146.032 269.92 147.058 269.92C148.058 269.92 148.952 270.153 149.738 270.62C150.525 271.073 151.138 271.727 151.578 272.58C152.032 273.42 152.258 274.4 152.258 275.52C152.258 276.64 152.032 277.627 151.578 278.48C151.138 279.333 150.518 279.993 149.718 280.46C148.932 280.927 148.045 281.16 147.058 281.16C146.018 281.16 145.118 280.927 144.358 280.46C143.612 279.98 143.065 279.36 142.718 278.6V281H141.338V266.2H142.718V272.5ZM150.838 275.52C150.838 274.613 150.658 273.833 150.298 273.18C149.952 272.513 149.472 272.007 148.858 271.66C148.245 271.313 147.552 271.14 146.778 271.14C146.032 271.14 145.345 271.32 144.718 271.68C144.105 272.04 143.618 272.553 143.258 273.22C142.898 273.887 142.718 274.66 142.718 275.54C142.718 276.42 142.898 277.193 143.258 277.86C143.618 278.527 144.105 279.04 144.718 279.4C145.345 279.76 146.032 279.94 146.778 279.94C147.552 279.94 148.245 279.767 148.858 279.42C149.472 279.06 149.952 278.547 150.298 277.88C150.658 277.2 150.838 276.413 150.838 275.52ZM156.214 272.5C156.574 271.74 157.128 271.12 157.874 270.64C158.634 270.16 159.528 269.92 160.554 269.92C161.554 269.92 162.448 270.153 163.234 270.62C164.021 271.073 164.634 271.727 165.074 272.58C165.528 273.42 165.754 274.4 165.754 275.52C165.754 276.64 165.528 277.627 165.074 278.48C164.634 279.333 164.014 279.993 163.214 280.46C162.428 280.927 161.541 281.16 160.554 281.16C159.514 281.16 158.614 280.927 157.854 280.46C157.108 279.98 156.561 279.36 156.214 278.6V281H154.834V266.2H156.214V272.5ZM164.334 275.52C164.334 274.613 164.154 273.833 163.794 273.18C163.448 272.513 162.968 272.007 162.354 271.66C161.741 271.313 161.048 271.14 160.274 271.14C159.528 271.14 158.841 271.32 158.214 271.68C157.601 272.04 157.114 272.553 156.754 273.22C156.394 273.887 156.214 274.66 156.214 275.54C156.214 276.42 156.394 277.193 156.754 277.86C157.114 278.527 157.601 279.04 158.214 279.4C158.841 279.76 159.528 279.94 160.274 279.94C161.048 279.94 161.741 279.767 162.354 279.42C162.968 279.06 163.448 278.547 163.794 277.88C164.154 277.2 164.334 276.413 164.334 275.52ZM177.33 270.08L170.85 286.14H169.39L171.51 280.94L167.03 270.08H168.57L172.29 279.4L175.89 270.08H177.33ZM186.097 272.48C186.444 271.747 186.991 271.14 187.737 270.66C188.497 270.167 189.397 269.92 190.437 269.92C191.424 269.92 192.311 270.153 193.097 270.62C193.897 271.073 194.517 271.727 194.957 272.58C195.411 273.42 195.637 274.4 195.637 275.52C195.637 276.64 195.411 277.627 194.957 278.48C194.517 279.333 193.897 279.993 193.097 280.46C192.311 280.927 191.424 281.16 190.437 281.16C189.411 281.16 188.517 280.92 187.757 280.44C186.997 279.947 186.444 279.333 186.097 278.6V286.16H184.717V270.08H186.097V272.48ZM194.217 275.52C194.217 274.613 194.037 273.833 193.677 273.18C193.331 272.513 192.851 272.007 192.237 271.66C191.624 271.313 190.931 271.14 190.157 271.14C189.411 271.14 188.724 271.32 188.097 271.68C187.484 272.04 186.997 272.553 186.637 273.22C186.277 273.887 186.097 274.66 186.097 275.54C186.097 276.42 186.277 277.193 186.637 277.86C186.997 278.527 187.484 279.04 188.097 279.4C188.724 279.76 189.411 279.94 190.157 279.94C190.931 279.94 191.624 279.767 192.237 279.42C192.851 279.06 193.331 278.547 193.677 277.88C194.037 277.2 194.217 276.413 194.217 275.52ZM199.613 272.02C199.92 271.34 200.387 270.813 201.013 270.44C201.653 270.067 202.433 269.88 203.353 269.88V271.34H202.973C201.96 271.34 201.147 271.613 200.533 272.16C199.92 272.707 199.613 273.62 199.613 274.9V281H198.213V270.08H199.613V272.02ZM210.239 281.16C209.213 281.16 208.286 280.933 207.459 280.48C206.646 280.013 205.999 279.36 205.519 278.52C205.053 277.667 204.819 276.673 204.819 275.54C204.819 274.407 205.059 273.42 205.539 272.58C206.019 271.727 206.673 271.073 207.499 270.62C208.326 270.153 209.253 269.92 210.279 269.92C211.306 269.92 212.233 270.153 213.059 270.62C213.899 271.073 214.553 271.727 215.019 272.58C215.499 273.42 215.739 274.407 215.739 275.54C215.739 276.66 215.499 277.647 215.019 278.5C214.539 279.353 213.879 280.013 213.039 280.48C212.199 280.933 211.266 281.16 210.239 281.16ZM210.239 279.94C210.959 279.94 211.626 279.78 212.239 279.46C212.853 279.127 213.346 278.633 213.719 277.98C214.106 277.313 214.299 276.5 214.299 275.54C214.299 274.58 214.113 273.773 213.739 273.12C213.366 272.453 212.873 271.96 212.259 271.64C211.646 271.307 210.979 271.14 210.259 271.14C209.539 271.14 208.873 271.307 208.259 271.64C207.646 271.96 207.153 272.453 206.779 273.12C206.419 273.773 206.239 274.58 206.239 275.54C206.239 276.5 206.419 277.313 206.779 277.98C207.153 278.633 207.639 279.127 208.239 279.46C208.853 279.78 209.519 279.94 210.239 279.94ZM219.091 268.02C218.811 268.02 218.571 267.92 218.371 267.72C218.171 267.52 218.071 267.273 218.071 266.98C218.071 266.687 218.171 266.447 218.371 266.26C218.571 266.06 218.811 265.96 219.091 265.96C219.371 265.96 219.605 266.06 219.791 266.26C219.991 266.447 220.091 266.687 220.091 266.98C220.091 267.273 219.991 267.52 219.791 267.72C219.605 267.92 219.371 268.02 219.091 268.02ZM219.771 283.58C219.771 284.46 219.551 285.107 219.111 285.52C218.671 285.947 218.011 286.16 217.131 286.16H216.151V284.96H216.911C217.431 284.96 217.805 284.847 218.031 284.62C218.258 284.407 218.371 284.04 218.371 283.52V270.08H219.771V283.58ZM232.859 274.98C232.859 275.46 232.846 275.827 232.819 276.08H223.759C223.799 276.907 223.999 277.613 224.359 278.2C224.719 278.787 225.192 279.233 225.779 279.54C226.366 279.833 227.006 279.98 227.699 279.98C228.606 279.98 229.366 279.76 229.979 279.32C230.606 278.88 231.019 278.287 231.219 277.54H232.699C232.432 278.607 231.859 279.48 230.979 280.16C230.112 280.827 229.019 281.16 227.699 281.16C226.672 281.16 225.752 280.933 224.939 280.48C224.126 280.013 223.486 279.36 223.019 278.52C222.566 277.667 222.339 276.673 222.339 275.54C222.339 274.407 222.566 273.413 223.019 272.56C223.472 271.707 224.106 271.053 224.919 270.6C225.732 270.147 226.659 269.92 227.699 269.92C228.739 269.92 229.646 270.147 230.419 270.6C231.206 271.053 231.806 271.667 232.219 272.44C232.646 273.2 232.859 274.047 232.859 274.98ZM231.439 274.94C231.452 274.127 231.286 273.433 230.939 272.86C230.606 272.287 230.146 271.853 229.559 271.56C228.972 271.267 228.332 271.12 227.639 271.12C226.599 271.12 225.712 271.453 224.979 272.12C224.246 272.787 223.839 273.727 223.759 274.94H231.439ZM234.78 275.54C234.78 274.407 235.007 273.42 235.46 272.58C235.914 271.727 236.54 271.073 237.34 270.62C238.14 270.153 239.054 269.92 240.08 269.92C241.427 269.92 242.534 270.253 243.4 270.92C244.28 271.587 244.847 272.493 245.1 273.64H243.6C243.414 272.853 243.007 272.24 242.38 271.8C241.767 271.347 241 271.12 240.08 271.12C239.347 271.12 238.687 271.287 238.1 271.62C237.514 271.953 237.047 272.453 236.7 273.12C236.367 273.773 236.2 274.58 236.2 275.54C236.2 276.5 236.367 277.313 236.7 277.98C237.047 278.647 237.514 279.147 238.1 279.48C238.687 279.813 239.347 279.98 240.08 279.98C241 279.98 241.767 279.76 242.38 279.32C243.007 278.867 243.414 278.24 243.6 277.44H245.1C244.847 278.56 244.28 279.46 243.4 280.14C242.52 280.82 241.414 281.16 240.08 281.16C239.054 281.16 238.14 280.933 237.34 280.48C236.54 280.013 235.914 279.36 235.46 278.52C235.007 277.667 234.78 276.673 234.78 275.54ZM249.506 271.26V278.04C249.506 278.707 249.633 279.167 249.886 279.42C250.139 279.673 250.586 279.8 251.226 279.8H252.506V281H251.006C250.019 281 249.286 280.773 248.806 280.32C248.326 279.853 248.086 279.093 248.086 278.04V271.26H246.566V270.08H248.086V267.34H249.506V270.08H252.506V271.26H249.506ZM264.603 271.26H262.063V281H260.663V271.26H259.143V270.08H260.663V269.32C260.663 268.133 260.963 267.26 261.563 266.7C262.176 266.14 263.163 265.86 264.523 265.86V267.06C263.616 267.06 262.976 267.233 262.603 267.58C262.243 267.927 262.063 268.507 262.063 269.32V270.08H264.603V271.26ZM268.207 272.02C268.514 271.34 268.98 270.813 269.607 270.44C270.247 270.067 271.027 269.88 271.947 269.88V271.34H271.567C270.554 271.34 269.74 271.613 269.127 272.16C268.514 272.707 268.207 273.62 268.207 274.9V281H266.807V270.08H268.207V272.02ZM278.833 281.16C277.806 281.16 276.88 280.933 276.053 280.48C275.24 280.013 274.593 279.36 274.113 278.52C273.646 277.667 273.413 276.673 273.413 275.54C273.413 274.407 273.653 273.42 274.133 272.58C274.613 271.727 275.266 271.073 276.093 270.62C276.92 270.153 277.846 269.92 278.873 269.92C279.9 269.92 280.826 270.153 281.653 270.62C282.493 271.073 283.146 271.727 283.613 272.58C284.093 273.42 284.333 274.407 284.333 275.54C284.333 276.66 284.093 277.647 283.613 278.5C283.133 279.353 282.473 280.013 281.633 280.48C280.793 280.933 279.86 281.16 278.833 281.16ZM278.833 279.94C279.553 279.94 280.22 279.78 280.833 279.46C281.446 279.127 281.94 278.633 282.313 277.98C282.7 277.313 282.893 276.5 282.893 275.54C282.893 274.58 282.706 273.773 282.333 273.12C281.96 272.453 281.466 271.96 280.853 271.64C280.24 271.307 279.573 271.14 278.853 271.14C278.133 271.14 277.466 271.307 276.853 271.64C276.24 271.96 275.746 272.453 275.373 273.12C275.013 273.773 274.833 274.58 274.833 275.54C274.833 276.5 275.013 277.313 275.373 277.98C275.746 278.633 276.233 279.127 276.833 279.46C277.446 279.78 278.113 279.94 278.833 279.94ZM299.885 269.88C301.165 269.88 302.205 270.287 303.005 271.1C303.818 271.9 304.225 273.067 304.225 274.6V281H302.845V274.76C302.845 273.573 302.558 272.667 301.985 272.04C301.412 271.413 300.632 271.1 299.645 271.1C298.618 271.1 297.798 271.44 297.185 272.12C296.572 272.8 296.265 273.787 296.265 275.08V281H294.885V274.76C294.885 273.573 294.598 272.667 294.025 272.04C293.452 271.413 292.665 271.1 291.665 271.1C290.638 271.1 289.818 271.44 289.205 272.12C288.592 272.8 288.285 273.787 288.285 275.08V281H286.885V270.08H288.285V271.96C288.632 271.28 289.125 270.767 289.765 270.42C290.405 270.06 291.118 269.88 291.905 269.88C292.852 269.88 293.678 270.107 294.385 270.56C295.105 271.013 295.625 271.68 295.945 272.56C296.238 271.693 296.738 271.033 297.445 270.58C298.165 270.113 298.978 269.88 299.885 269.88ZM148.631 303.42C148.631 302.3 148.851 301.307 149.291 300.44C149.744 299.573 150.351 298.907 151.111 298.44C151.884 297.973 152.744 297.74 153.691 297.74C154.517 297.74 155.237 297.907 155.851 298.24C156.477 298.573 156.977 298.993 157.351 299.5V297.92H160.171V309H157.351V307.38C156.991 307.9 156.491 308.333 155.851 308.68C155.224 309.013 154.497 309.18 153.671 309.18C152.737 309.18 151.884 308.94 151.111 308.46C150.351 307.98 149.744 307.307 149.291 306.44C148.851 305.56 148.631 304.553 148.631 303.42ZM157.351 303.46C157.351 302.78 157.217 302.2 156.951 301.72C156.684 301.227 156.324 300.853 155.871 300.6C155.417 300.333 154.931 300.2 154.411 300.2C153.891 300.2 153.411 300.327 152.971 300.58C152.531 300.833 152.171 301.207 151.891 301.7C151.624 302.18 151.491 302.753 151.491 303.42C151.491 304.087 151.624 304.673 151.891 305.18C152.171 305.673 152.531 306.053 152.971 306.32C153.424 306.587 153.904 306.72 154.411 306.72C154.931 306.72 155.417 306.593 155.871 306.34C156.324 306.073 156.684 305.7 156.951 305.22C157.217 304.727 157.351 304.14 157.351 303.46ZM165.705 299.52C166.065 299.013 166.559 298.593 167.185 298.26C167.825 297.913 168.552 297.74 169.365 297.74C170.312 297.74 171.165 297.973 171.925 298.44C172.699 298.907 173.305 299.573 173.745 300.44C174.199 301.293 174.425 302.287 174.425 303.42C174.425 304.553 174.199 305.56 173.745 306.44C173.305 307.307 172.699 307.98 171.925 308.46C171.165 308.94 170.312 309.18 169.365 309.18C168.552 309.18 167.832 309.013 167.205 308.68C166.592 308.347 166.092 307.927 165.705 307.42V314.28H162.905V297.92H165.705V299.52ZM171.565 303.42C171.565 302.753 171.425 302.18 171.145 301.7C170.879 301.207 170.519 300.833 170.065 300.58C169.625 300.327 169.145 300.2 168.625 300.2C168.119 300.2 167.639 300.333 167.185 300.6C166.745 300.853 166.385 301.227 166.105 301.72C165.839 302.213 165.705 302.793 165.705 303.46C165.705 304.127 165.839 304.707 166.105 305.2C166.385 305.693 166.745 306.073 167.185 306.34C167.639 306.593 168.119 306.72 168.625 306.72C169.145 306.72 169.625 306.587 170.065 306.32C170.519 306.053 170.879 305.673 171.145 305.18C171.425 304.687 171.565 304.1 171.565 303.42ZM179.26 299.64C179.62 299.053 180.087 298.593 180.66 298.26C181.247 297.927 181.913 297.76 182.66 297.76V300.7H181.92C181.04 300.7 180.373 300.907 179.92 301.32C179.48 301.733 179.26 302.453 179.26 303.48V309H176.46V297.92H179.26V299.64ZM185.966 296.6C185.473 296.6 185.059 296.447 184.726 296.14C184.406 295.82 184.246 295.427 184.246 294.96C184.246 294.493 184.406 294.107 184.726 293.8C185.059 293.48 185.473 293.32 185.966 293.32C186.459 293.32 186.866 293.48 187.186 293.8C187.519 294.107 187.686 294.493 187.686 294.96C187.686 295.427 187.519 295.82 187.186 296.14C186.866 296.447 186.459 296.6 185.966 296.6ZM187.346 297.92V309H184.546V297.92H187.346ZM192.912 294.2V309H190.112V294.2H192.912ZM198.479 299.52C198.839 299.013 199.332 298.593 199.959 298.26C200.599 297.913 201.325 297.74 202.139 297.74C203.085 297.74 203.939 297.973 204.699 298.44C205.472 298.907 206.079 299.573 206.519 300.44C206.972 301.293 207.199 302.287 207.199 303.42C207.199 304.553 206.972 305.56 206.519 306.44C206.079 307.307 205.472 307.98 204.699 308.46C203.939 308.94 203.085 309.18 202.139 309.18C201.325 309.18 200.605 309.013 199.979 308.68C199.365 308.347 198.865 307.927 198.479 307.42V314.28H195.679V297.92H198.479V299.52ZM204.339 303.42C204.339 302.753 204.199 302.18 203.919 301.7C203.652 301.207 203.292 300.833 202.839 300.58C202.399 300.327 201.919 300.2 201.399 300.2C200.892 300.2 200.412 300.333 199.959 300.6C199.519 300.853 199.159 301.227 198.879 301.72C198.612 302.213 198.479 302.793 198.479 303.46C198.479 304.127 198.612 304.707 198.879 305.2C199.159 305.693 199.519 306.073 199.959 306.34C200.412 306.593 200.892 306.72 201.399 306.72C201.919 306.72 202.399 306.587 202.839 306.32C203.292 306.053 203.652 305.673 203.919 305.18C204.199 304.687 204.339 304.1 204.339 303.42ZM210.654 296.6C210.16 296.6 209.747 296.447 209.414 296.14C209.094 295.82 208.934 295.427 208.934 294.96C208.934 294.493 209.094 294.107 209.414 293.8C209.747 293.48 210.16 293.32 210.654 293.32C211.147 293.32 211.554 293.48 211.874 293.8C212.207 294.107 212.374 294.493 212.374 294.96C212.374 295.427 212.207 295.82 211.874 296.14C211.554 296.447 211.147 296.6 210.654 296.6ZM212.034 297.92V309H209.234V297.92H212.034ZM220.92 309L218.64 305.56L216.62 309H213.62L217.24 303.44L213.58 297.92H216.74L219 301.34L221.04 297.92H224.04L220.4 303.44L224.08 309H220.92ZM235.901 303.22C235.901 303.62 235.874 303.98 235.821 304.3H227.721C227.787 305.1 228.067 305.727 228.561 306.18C229.054 306.633 229.661 306.86 230.381 306.86C231.421 306.86 232.161 306.413 232.601 305.52H235.621C235.301 306.587 234.687 307.467 233.781 308.16C232.874 308.84 231.761 309.18 230.441 309.18C229.374 309.18 228.414 308.947 227.561 308.48C226.721 308 226.061 307.327 225.581 306.46C225.114 305.593 224.881 304.593 224.881 303.46C224.881 302.313 225.114 301.307 225.581 300.44C226.047 299.573 226.701 298.907 227.541 298.44C228.381 297.973 229.347 297.74 230.441 297.74C231.494 297.74 232.434 297.967 233.261 298.42C234.101 298.873 234.747 299.52 235.201 300.36C235.667 301.187 235.901 302.14 235.901 303.22ZM233.001 302.42C232.987 301.7 232.727 301.127 232.221 300.7C231.714 300.26 231.094 300.04 230.361 300.04C229.667 300.04 229.081 300.253 228.601 300.68C228.134 301.093 227.847 301.673 227.741 302.42H233.001ZM240.744 294.2V309H237.944V294.2H240.744ZM247.751 309.18C246.844 309.18 246.031 309.02 245.311 308.7C244.591 308.367 244.018 307.92 243.591 307.36C243.178 306.8 242.951 306.18 242.911 305.5H245.731C245.784 305.927 245.991 306.28 246.351 306.56C246.724 306.84 247.184 306.98 247.731 306.98C248.264 306.98 248.678 306.873 248.971 306.66C249.278 306.447 249.431 306.173 249.431 305.84C249.431 305.48 249.244 305.213 248.871 305.04C248.511 304.853 247.931 304.653 247.131 304.44C246.304 304.24 245.624 304.033 245.091 303.82C244.571 303.607 244.118 303.28 243.731 302.84C243.358 302.4 243.171 301.807 243.171 301.06C243.171 300.447 243.344 299.887 243.691 299.38C244.051 298.873 244.558 298.473 245.211 298.18C245.878 297.887 246.658 297.74 247.551 297.74C248.871 297.74 249.924 298.073 250.711 298.74C251.498 299.393 251.931 300.28 252.011 301.4H249.331C249.291 300.96 249.104 300.613 248.771 300.36C248.451 300.093 248.018 299.96 247.471 299.96C246.964 299.96 246.571 300.053 246.291 300.24C246.024 300.427 245.891 300.687 245.891 301.02C245.891 301.393 246.078 301.68 246.451 301.88C246.824 302.067 247.404 302.26 248.191 302.46C248.991 302.66 249.651 302.867 250.171 303.08C250.691 303.293 251.138 303.627 251.511 304.08C251.898 304.52 252.098 305.107 252.111 305.84C252.111 306.48 251.931 307.053 251.571 307.56C251.224 308.067 250.718 308.467 250.051 308.76C249.398 309.04 248.631 309.18 247.751 309.18Z" fill="white"/>
<path d="M145.474 355.44C146.128 355.44 146.661 355.643 147.074 356.05C147.488 356.45 147.694 357.033 147.694 357.8V361H147.004V357.88C147.004 357.287 146.854 356.833 146.554 356.52C146.261 356.207 145.858 356.05 145.344 356.05C144.818 356.05 144.398 356.217 144.084 356.55C143.771 356.883 143.614 357.373 143.614 358.02V361H142.914V355.54H143.614V356.47C143.788 356.137 144.038 355.883 144.364 355.71C144.691 355.53 145.061 355.44 145.474 355.44ZM151.632 361.08C151.119 361.08 150.656 360.967 150.242 360.74C149.836 360.507 149.512 360.18 149.272 359.76C149.039 359.333 148.922 358.837 148.922 358.27C148.922 357.703 149.042 357.21 149.282 356.79C149.522 356.363 149.849 356.037 150.262 355.81C150.676 355.577 151.139 355.46 151.652 355.46C152.166 355.46 152.629 355.577 153.042 355.81C153.462 356.037 153.789 356.363 154.022 356.79C154.262 357.21 154.382 357.703 154.382 358.27C154.382 358.83 154.262 359.323 154.022 359.75C153.782 360.177 153.452 360.507 153.032 360.74C152.612 360.967 152.146 361.08 151.632 361.08ZM151.632 360.47C151.992 360.47 152.326 360.39 152.632 360.23C152.939 360.063 153.186 359.817 153.372 359.49C153.566 359.157 153.662 358.75 153.662 358.27C153.662 357.79 153.569 357.387 153.382 357.06C153.196 356.727 152.949 356.48 152.642 356.32C152.336 356.153 152.002 356.07 151.642 356.07C151.282 356.07 150.949 356.153 150.642 356.32C150.336 356.48 150.089 356.727 149.902 357.06C149.722 357.387 149.632 357.79 149.632 358.27C149.632 358.75 149.722 359.157 149.902 359.49C150.089 359.817 150.332 360.063 150.632 360.23C150.939 360.39 151.272 360.47 151.632 360.47ZM156.568 356.13V359.52C156.568 359.853 156.632 360.083 156.758 360.21C156.885 360.337 157.108 360.4 157.428 360.4H158.068V361H157.318C156.825 361 156.458 360.887 156.218 360.66C155.978 360.427 155.858 360.047 155.858 359.52V356.13H155.098V355.54H155.858V354.17H156.568V355.54H158.068V356.13H156.568ZM164.117 356.13H162.847V361H162.147V356.13H161.387V355.54H162.147V355.16C162.147 354.567 162.297 354.13 162.597 353.85C162.904 353.57 163.397 353.43 164.077 353.43V354.03C163.624 354.03 163.304 354.117 163.117 354.29C162.937 354.463 162.847 354.753 162.847 355.16V355.54H164.117V356.13ZM167.609 361.08C167.096 361.08 166.632 360.967 166.219 360.74C165.812 360.507 165.489 360.18 165.249 359.76C165.016 359.333 164.899 358.837 164.899 358.27C164.899 357.703 165.019 357.21 165.259 356.79C165.499 356.363 165.826 356.037 166.239 355.81C166.652 355.577 167.116 355.46 167.629 355.46C168.142 355.46 168.606 355.577 169.019 355.81C169.439 356.037 169.766 356.363 169.999 356.79C170.239 357.21 170.359 357.703 170.359 358.27C170.359 358.83 170.239 359.323 169.999 359.75C169.759 360.177 169.429 360.507 169.009 360.74C168.589 360.967 168.122 361.08 167.609 361.08ZM167.609 360.47C167.969 360.47 168.302 360.39 168.609 360.23C168.916 360.063 169.162 359.817 169.349 359.49C169.542 359.157 169.639 358.75 169.639 358.27C169.639 357.79 169.546 357.387 169.359 357.06C169.172 356.727 168.926 356.48 168.619 356.32C168.312 356.153 167.979 356.07 167.619 356.07C167.259 356.07 166.926 356.153 166.619 356.32C166.312 356.48 166.066 356.727 165.879 357.06C165.699 357.387 165.609 357.79 165.609 358.27C165.609 358.75 165.699 359.157 165.879 359.49C166.066 359.817 166.309 360.063 166.609 360.23C166.916 360.39 167.249 360.47 167.609 360.47ZM172.335 356.51C172.488 356.17 172.722 355.907 173.035 355.72C173.355 355.533 173.745 355.44 174.205 355.44V356.17H174.015C173.508 356.17 173.102 356.307 172.795 356.58C172.488 356.853 172.335 357.31 172.335 357.95V361H171.635V355.54H172.335V356.51ZM177.682 358.27C177.682 357.703 177.795 357.21 178.022 356.79C178.249 356.363 178.562 356.037 178.962 355.81C179.362 355.577 179.819 355.46 180.332 355.46C181.005 355.46 181.559 355.627 181.992 355.96C182.432 356.293 182.715 356.747 182.842 357.32H182.092C181.999 356.927 181.795 356.62 181.482 356.4C181.175 356.173 180.792 356.06 180.332 356.06C179.965 356.06 179.635 356.143 179.342 356.31C179.049 356.477 178.815 356.727 178.642 357.06C178.475 357.387 178.392 357.79 178.392 358.27C178.392 358.75 178.475 359.157 178.642 359.49C178.815 359.823 179.049 360.073 179.342 360.24C179.635 360.407 179.965 360.49 180.332 360.49C180.792 360.49 181.175 360.38 181.482 360.16C181.795 359.933 181.999 359.62 182.092 359.22H182.842C182.715 359.78 182.432 360.23 181.992 360.57C181.552 360.91 180.999 361.08 180.332 361.08C179.819 361.08 179.362 360.967 178.962 360.74C178.562 360.507 178.249 360.18 178.022 359.76C177.795 359.333 177.682 358.837 177.682 358.27ZM186.525 361.08C186.012 361.08 185.548 360.967 185.135 360.74C184.728 360.507 184.405 360.18 184.165 359.76C183.932 359.333 183.815 358.837 183.815 358.27C183.815 357.703 183.935 357.21 184.175 356.79C184.415 356.363 184.742 356.037 185.155 355.81C185.568 355.577 186.032 355.46 186.545 355.46C187.058 355.46 187.522 355.577 187.935 355.81C188.355 356.037 188.682 356.363 188.915 356.79C189.155 357.21 189.275 357.703 189.275 358.27C189.275 358.83 189.155 359.323 188.915 359.75C188.675 360.177 188.345 360.507 187.925 360.74C187.505 360.967 187.038 361.08 186.525 361.08ZM186.525 360.47C186.885 360.47 187.218 360.39 187.525 360.23C187.832 360.063 188.078 359.817 188.265 359.49C188.458 359.157 188.555 358.75 188.555 358.27C188.555 357.79 188.462 357.387 188.275 357.06C188.088 356.727 187.842 356.48 187.535 356.32C187.228 356.153 186.895 356.07 186.535 356.07C186.175 356.07 185.842 356.153 185.535 356.32C185.228 356.48 184.982 356.727 184.795 357.06C184.615 357.387 184.525 357.79 184.525 358.27C184.525 358.75 184.615 359.157 184.795 359.49C184.982 359.817 185.225 360.063 185.525 360.23C185.832 360.39 186.165 360.47 186.525 360.47ZM197.051 355.44C197.691 355.44 198.211 355.643 198.611 356.05C199.018 356.45 199.221 357.033 199.221 357.8V361H198.531V357.88C198.531 357.287 198.388 356.833 198.101 356.52C197.814 356.207 197.424 356.05 196.931 356.05C196.418 356.05 196.008 356.22 195.701 356.56C195.394 356.9 195.241 357.393 195.241 358.04V361H194.551V357.88C194.551 357.287 194.408 356.833 194.121 356.52C193.834 356.207 193.441 356.05 192.941 356.05C192.428 356.05 192.018 356.22 191.711 356.56C191.404 356.9 191.251 357.393 191.251 358.04V361H190.551V355.54H191.251V356.48C191.424 356.14 191.671 355.883 191.991 355.71C192.311 355.53 192.668 355.44 193.061 355.44C193.534 355.44 193.948 355.553 194.301 355.78C194.661 356.007 194.921 356.34 195.081 356.78C195.228 356.347 195.478 356.017 195.831 355.79C196.191 355.557 196.598 355.44 197.051 355.44ZM207.276 355.44C207.916 355.44 208.436 355.643 208.836 356.05C209.242 356.45 209.446 357.033 209.446 357.8V361H208.756V357.88C208.756 357.287 208.612 356.833 208.326 356.52C208.039 356.207 207.649 356.05 207.156 356.05C206.642 356.05 206.232 356.22 205.926 356.56C205.619 356.9 205.466 357.393 205.466 358.04V361H204.776V357.88C204.776 357.287 204.632 356.833 204.346 356.52C204.059 356.207 203.666 356.05 203.166 356.05C202.652 356.05 202.242 356.22 201.936 356.56C201.629 356.9 201.476 357.393 201.476 358.04V361H200.776V355.54H201.476V356.48C201.649 356.14 201.896 355.883 202.216 355.71C202.536 355.53 202.892 355.44 203.286 355.44C203.759 355.44 204.172 355.553 204.526 355.78C204.886 356.007 205.146 356.34 205.306 356.78C205.452 356.347 205.702 356.017 206.056 355.79C206.416 355.557 206.822 355.44 207.276 355.44ZM215.94 357.99C215.94 358.23 215.934 358.413 215.92 358.54H211.39C211.41 358.953 211.51 359.307 211.69 359.6C211.87 359.893 212.107 360.117 212.4 360.27C212.694 360.417 213.014 360.49 213.36 360.49C213.814 360.49 214.194 360.38 214.5 360.16C214.814 359.94 215.02 359.643 215.12 359.27H215.86C215.727 359.803 215.44 360.24 215 360.58C214.567 360.913 214.02 361.08 213.36 361.08C212.847 361.08 212.387 360.967 211.98 360.74C211.574 360.507 211.254 360.18 211.02 359.76C210.794 359.333 210.68 358.837 210.68 358.27C210.68 357.703 210.794 357.207 211.02 356.78C211.247 356.353 211.564 356.027 211.97 355.8C212.377 355.573 212.84 355.46 213.36 355.46C213.88 355.46 214.334 355.573 214.72 355.8C215.114 356.027 215.414 356.333 215.62 356.72C215.834 357.1 215.94 357.523 215.94 357.99ZM215.23 357.97C215.237 357.563 215.154 357.217 214.98 356.93C214.814 356.643 214.584 356.427 214.29 356.28C213.997 356.133 213.677 356.06 213.33 356.06C212.81 356.06 212.367 356.227 212 356.56C211.634 356.893 211.43 357.363 211.39 357.97H215.23ZM217.921 356.51C218.074 356.17 218.308 355.907 218.621 355.72C218.941 355.533 219.331 355.44 219.791 355.44V356.17H219.601C219.094 356.17 218.688 356.307 218.381 356.58C218.074 356.853 217.921 357.31 217.921 357.95V361H217.221V355.54H217.921V356.51ZM220.524 358.27C220.524 357.703 220.637 357.21 220.864 356.79C221.091 356.363 221.404 356.037 221.804 355.81C222.204 355.577 222.661 355.46 223.174 355.46C223.847 355.46 224.401 355.627 224.834 355.96C225.274 356.293 225.557 356.747 225.684 357.32H224.934C224.841 356.927 224.637 356.62 224.324 356.4C224.017 356.173 223.634 356.06 223.174 356.06C222.807 356.06 222.477 356.143 222.184 356.31C221.891 356.477 221.657 356.727 221.484 357.06C221.317 357.387 221.234 357.79 221.234 358.27C221.234 358.75 221.317 359.157 221.484 359.49C221.657 359.823 221.891 360.073 222.184 360.24C222.477 360.407 222.807 360.49 223.174 360.49C223.634 360.49 224.017 360.38 224.324 360.16C224.637 359.933 224.841 359.62 224.934 359.22H225.684C225.557 359.78 225.274 360.23 224.834 360.57C224.394 360.91 223.841 361.08 223.174 361.08C222.661 361.08 222.204 360.967 221.804 360.74C221.404 360.507 221.091 360.18 220.864 359.76C220.637 359.333 220.524 358.837 220.524 358.27ZM227.327 354.51C227.187 354.51 227.067 354.46 226.967 354.36C226.867 354.26 226.817 354.137 226.817 353.99C226.817 353.843 226.867 353.723 226.967 353.63C227.067 353.53 227.187 353.48 227.327 353.48C227.467 353.48 227.587 353.53 227.687 353.63C227.787 353.723 227.837 353.843 227.837 353.99C227.837 354.137 227.787 354.26 227.687 354.36C227.587 354.46 227.467 354.51 227.327 354.51ZM227.677 355.54V361H226.977V355.54H227.677ZM228.942 358.26C228.942 357.7 229.052 357.21 229.272 356.79C229.499 356.363 229.809 356.037 230.202 355.81C230.602 355.577 231.052 355.46 231.552 355.46C232.072 355.46 232.519 355.58 232.892 355.82C233.272 356.06 233.545 356.367 233.712 356.74V355.54H234.412V361H233.712V359.79C233.539 360.163 233.262 360.473 232.882 360.72C232.509 360.96 232.062 361.08 231.542 361.08C231.049 361.08 230.602 360.963 230.202 360.73C229.809 360.497 229.499 360.167 229.272 359.74C229.052 359.313 228.942 358.82 228.942 358.26ZM233.712 358.27C233.712 357.83 233.622 357.443 233.442 357.11C233.262 356.777 233.015 356.52 232.702 356.34C232.395 356.16 232.055 356.07 231.682 356.07C231.295 356.07 230.949 356.157 230.642 356.33C230.335 356.503 230.092 356.757 229.912 357.09C229.739 357.417 229.652 357.807 229.652 358.26C229.652 358.707 229.739 359.1 229.912 359.44C230.092 359.773 230.335 360.03 230.642 360.21C230.949 360.383 231.295 360.47 231.682 360.47C232.055 360.47 232.395 360.38 232.702 360.2C233.015 360.02 233.262 359.763 233.442 359.43C233.622 359.097 233.712 358.71 233.712 358.27ZM236.71 353.6V361H236.01V353.6H236.71ZM245.769 355.54V361H245.069V360.04C244.909 360.38 244.663 360.64 244.329 360.82C243.996 361 243.623 361.09 243.209 361.09C242.556 361.09 242.023 360.89 241.609 360.49C241.196 360.083 240.989 359.497 240.989 358.73V355.54H241.679V358.65C241.679 359.243 241.826 359.697 242.119 360.01C242.419 360.323 242.826 360.48 243.339 360.48C243.866 360.48 244.286 360.313 244.599 359.98C244.913 359.647 245.069 359.157 245.069 358.51V355.54H245.769ZM249.247 361.08C248.621 361.08 248.107 360.937 247.707 360.65C247.314 360.357 247.094 359.96 247.047 359.46H247.767C247.801 359.767 247.944 360.017 248.197 360.21C248.457 360.397 248.804 360.49 249.237 360.49C249.617 360.49 249.914 360.4 250.127 360.22C250.347 360.04 250.457 359.817 250.457 359.55C250.457 359.363 250.397 359.21 250.277 359.09C250.157 358.97 250.004 358.877 249.817 358.81C249.637 358.737 249.391 358.66 249.077 358.58C248.671 358.473 248.341 358.367 248.087 358.26C247.834 358.153 247.617 357.997 247.437 357.79C247.264 357.577 247.177 357.293 247.177 356.94C247.177 356.673 247.257 356.427 247.417 356.2C247.577 355.973 247.804 355.793 248.097 355.66C248.391 355.527 248.724 355.46 249.097 355.46C249.684 355.46 250.157 355.61 250.517 355.91C250.877 356.203 251.071 356.61 251.097 357.13H250.397C250.377 356.81 250.251 356.553 250.017 356.36C249.791 356.16 249.477 356.06 249.077 356.06C248.724 356.06 248.437 356.143 248.217 356.31C247.997 356.477 247.887 356.683 247.887 356.93C247.887 357.143 247.951 357.32 248.077 357.46C248.211 357.593 248.374 357.7 248.567 357.78C248.761 357.853 249.021 357.937 249.347 358.03C249.741 358.137 250.054 358.24 250.287 358.34C250.521 358.44 250.721 358.587 250.887 358.78C251.054 358.973 251.141 359.23 251.147 359.55C251.147 359.843 251.067 360.107 250.907 360.34C250.747 360.567 250.524 360.747 250.237 360.88C249.951 361.013 249.621 361.08 249.247 361.08ZM257.405 357.99C257.405 358.23 257.398 358.413 257.385 358.54H252.855C252.875 358.953 252.975 359.307 253.155 359.6C253.335 359.893 253.572 360.117 253.865 360.27C254.158 360.417 254.478 360.49 254.825 360.49C255.278 360.49 255.658 360.38 255.965 360.16C256.278 359.94 256.485 359.643 256.585 359.27H257.325C257.192 359.803 256.905 360.24 256.465 360.58C256.032 360.913 255.485 361.08 254.825 361.08C254.312 361.08 253.852 360.967 253.445 360.74C253.038 360.507 252.718 360.18 252.485 359.76C252.258 359.333 252.145 358.837 252.145 358.27C252.145 357.703 252.258 357.207 252.485 356.78C252.712 356.353 253.028 356.027 253.435 355.8C253.842 355.573 254.305 355.46 254.825 355.46C255.345 355.46 255.798 355.573 256.185 355.8C256.578 356.027 256.878 356.333 257.085 356.72C257.298 357.1 257.405 357.523 257.405 357.99ZM256.695 357.97C256.702 357.563 256.618 357.217 256.445 356.93C256.278 356.643 256.048 356.427 255.755 356.28C255.462 356.133 255.142 356.06 254.795 356.06C254.275 356.06 253.832 356.227 253.465 356.56C253.098 356.893 252.895 357.363 252.855 357.97H256.695Z" fill="white"/>
</g>
<defs>
<filter id="filter0_in_124_16" x="0" y="0" width="400" height="400" filterUnits="userSpaceOnUse" color-interpolation-filters="sRGB">
<feFlood flood-opacity="0" result="BackgroundImageFix"/>
<feBlend mode="normal" in="SourceGraphic" in2="BackgroundImageFix" result="shape"/>
<feColorMatrix in="SourceAlpha" type="matrix" values="0 0 0 0 0 0 0 0 0 0 0 0 0 0 0 0 0 0 127 0" result="hardAlpha"/>
<feOffset/>
<feGaussianBlur stdDeviation="35"/>
<feComposite in2="hardAlpha" operator="arithmetic" k2="-1" k3="1"/>
<feColorMatrix type="matrix" values="0 0 0 0 0 0 0 0 0 0 0 0 0 0 0 0 0 0 0.4 0"/>
<feBlend mode="normal" in2="shape" result="effect1_innerShadow_124_16"/>
<feTurbulence type="fractalNoise" baseFrequency="2 2" stitchTiles="stitch" numOctaves="3" result="noise" seed="4066" />
<feColorMatrix in="noise" type="luminanceToAlpha" result="alphaNoise" />
<feComponentTransfer in="alphaNoise" result="coloredNoise1">
<feFuncA type="discrete" tableValues="1 1 1 1 1 1 1 1 1 1 1 1 1 1 1 1 1 1 1 1 1 1 1 1 1 1 1 1 1 1 1 1 1 1 1 1 1 1 1 1 1 1 1 1 1 1 1 1 1 1 1 0 0 0 0 0 0 0 0 0 0 0 0 0 0 0 0 0 0 0 0 0 0 0 0 0 0 0 0 0 0 0 0 0 0 0 0 0 0 0 0 0 0 0 0 0 0 0 0 0 "/>
</feComponentTransfer>
<feComposite operator="in" in2="effect1_innerShadow_124_16" in="coloredNoise1" result="noise1Clipped" />
<feFlood flood-color="rgba(0, 0, 0, 0.15)" result="color1Flood" />
<feComposite operator="in" in2="noise1Clipped" in="color1Flood" result="color1" />
<feMerge result="effect2_noise_124_16">
<feMergeNode in="effect1_innerShadow_124_16" />
<feMergeNode in="color1" />
</feMerge>
</filter>
<clipPath id="clip0_124_16">
<rect width="400" height="400" fill="white"/>
</clipPath>
</defs>
</svg>
