<svg width="100" height="100" viewBox="0 0 100 100" fill="none" xmlns="http://www.w3.org/2000/svg">
<g clip-path="url(#clip0_128_41)">
<g filter="url(#filter0_in_128_41)">
<circle cx="50" cy="50" r="50" fill="#111111"/>
</g>
<g filter="url(#filter1_in_128_41)">
<circle cx="50.0003" cy="50.0003" r="32.2581" fill="#DC2877"/>
</g>
<path d="M3.83652 51.8244C3.83652 50.8309 4.03168 49.9497 4.42201 49.1809C4.82416 48.412 5.36233 47.8207 6.03652 47.4067C6.72254 46.9927 7.48545 46.7857 8.32523 46.7857C9.05856 46.7857 9.69727 46.9336 10.2414 47.2293C10.7973 47.525 11.2408 47.8975 11.572 48.347V46.9454H14.0736V56.7744H11.572V55.3373C11.2527 55.7986 10.8091 56.183 10.2414 56.4905C9.68545 56.7862 9.04082 56.9341 8.30749 56.9341C7.47953 56.9341 6.72254 56.7212 6.03652 56.2954C5.36233 55.8696 4.82416 55.2723 4.42201 54.5034C4.03168 53.7228 3.83652 52.8298 3.83652 51.8244ZM11.572 51.8599C11.572 51.2567 11.4537 50.7422 11.2172 50.3163C10.9806 49.8787 10.6613 49.5475 10.2591 49.3228C9.85695 49.0862 9.42523 48.968 8.96394 48.968C8.50265 48.968 8.07684 49.0803 7.68652 49.3051C7.2962 49.5298 6.97684 49.861 6.72846 50.2986C6.4919 50.7244 6.37362 51.233 6.37362 51.8244C6.37362 52.4158 6.4919 52.9362 6.72846 53.3857C6.97684 53.8233 7.2962 54.1604 7.68652 54.397C8.08867 54.6336 8.51448 54.7518 8.96394 54.7518C9.42523 54.7518 9.85695 54.6395 10.2591 54.4147C10.6613 54.1782 10.9806 53.847 11.2172 53.4212C11.4537 52.9836 11.572 52.4631 11.572 51.8599ZM18.4512 48.3647C18.7705 47.9153 19.2082 47.5427 19.7641 47.247C20.3318 46.9395 20.9764 46.7857 21.6979 46.7857C22.5377 46.7857 23.2947 46.9927 23.9689 47.4067C24.6549 47.8207 25.1931 48.412 25.5834 49.1809C25.9856 49.9379 26.1866 50.819 26.1866 51.8244C26.1866 52.8298 25.9856 53.7228 25.5834 54.5034C25.1931 55.2723 24.6549 55.8696 23.9689 56.2954C23.2947 56.7212 22.5377 56.9341 21.6979 56.9341C20.9764 56.9341 20.3377 56.7862 19.7818 56.4905C19.2377 56.1948 18.7942 55.8223 18.4512 55.3728V61.4583H15.9673V46.9454H18.4512V48.3647ZM23.6496 51.8244C23.6496 51.233 23.5254 50.7244 23.277 50.2986C23.0404 49.861 22.7211 49.5298 22.3189 49.3051C21.9286 49.0803 21.5028 48.968 21.0415 48.968C20.592 48.968 20.1662 49.0862 19.7641 49.3228C19.3737 49.5475 19.0544 49.8787 18.806 50.3163C18.5694 50.754 18.4512 51.2685 18.4512 51.8599C18.4512 52.4513 18.5694 52.9658 18.806 53.4034C19.0544 53.8411 19.3737 54.1782 19.7641 54.4147C20.1662 54.6395 20.592 54.7518 21.0415 54.7518C21.5028 54.7518 21.9286 54.6336 22.3189 54.397C22.7211 54.1604 23.0404 53.8233 23.277 53.3857C23.5254 52.9481 23.6496 52.4276 23.6496 51.8244ZM29.9432 48.4712C30.2626 47.9508 30.6766 47.5427 31.1852 47.247C31.7056 46.9513 32.297 46.8034 32.9594 46.8034V49.4115H32.3029C31.5223 49.4115 30.9309 49.5948 30.5287 49.9615C30.1384 50.3282 29.9432 50.9669 29.9432 51.8776V56.7744H27.4594V46.9454H29.9432V48.4712ZM35.3598 45.7744C34.9221 45.7744 34.5555 45.6384 34.2598 45.3663C33.9759 45.0825 33.834 44.7336 33.834 44.3196C33.834 43.9056 33.9759 43.5626 34.2598 43.2905C34.5555 43.0067 34.9221 42.8647 35.3598 42.8647C35.7974 42.8647 36.1582 43.0067 36.442 43.2905C36.7377 43.5626 36.8856 43.9056 36.8856 44.3196C36.8856 44.7336 36.7377 45.0825 36.442 45.3663C36.1582 45.6384 35.7974 45.7744 35.3598 45.7744ZM36.584 46.9454V56.7744H34.1001V46.9454H36.584ZM40.9897 43.6454V56.7744H38.5058V43.6454H40.9897ZM45.3953 48.3647C45.7147 47.9153 46.1523 47.5427 46.7082 47.247C47.276 46.9395 47.9206 46.7857 48.6421 46.7857C49.4819 46.7857 50.2389 46.9927 50.9131 47.4067C51.5991 47.8207 52.1373 48.412 52.5276 49.1809C52.9298 49.9379 53.1308 50.819 53.1308 51.8244C53.1308 52.8298 52.9298 53.7228 52.5276 54.5034C52.1373 55.2723 51.5991 55.8696 50.9131 56.2954C50.2389 56.7212 49.4819 56.9341 48.6421 56.9341C47.9206 56.9341 47.2819 56.7862 46.726 56.4905C46.1819 56.1948 45.7384 55.8223 45.3953 55.3728V61.4583H42.9115V46.9454H45.3953V48.3647ZM50.5937 51.8244C50.5937 51.233 50.4695 50.7244 50.2212 50.2986C49.9846 49.861 49.6652 49.5298 49.2631 49.3051C48.8728 49.0803 48.447 48.968 47.9857 48.968C47.5362 48.968 47.1104 49.0862 46.7082 49.3228C46.3179 49.5475 45.9986 49.8787 45.7502 50.3163C45.5136 50.754 45.3953 51.2685 45.3953 51.8599C45.3953 52.4513 45.5136 52.9658 45.7502 53.4034C45.9986 53.8411 46.3179 54.1782 46.7082 54.4147C47.1104 54.6395 47.5362 54.7518 47.9857 54.7518C48.447 54.7518 48.8728 54.6336 49.2631 54.397C49.6652 54.1604 49.9846 53.8233 50.2212 53.3857C50.4695 52.9481 50.5937 52.4276 50.5937 51.8244ZM56.8874 43.6454V56.7744H54.4035V43.6454H56.8874ZM58.1705 51.8244C58.1705 50.8309 58.3657 49.9497 58.756 49.1809C59.1581 48.412 59.6963 47.8207 60.3705 47.4067C61.0565 46.9927 61.8194 46.7857 62.6592 46.7857C63.3925 46.7857 64.0313 46.9336 64.5753 47.2293C65.1313 47.525 65.5748 47.8975 65.906 48.347V46.9454H68.4076V56.7744H65.906V55.3373C65.5866 55.7986 65.1431 56.183 64.5753 56.4905C64.0194 56.7862 63.3748 56.9341 62.6415 56.9341C61.8135 56.9341 61.0565 56.7212 60.3705 56.2954C59.6963 55.8696 59.1581 55.2723 58.756 54.5034C58.3657 53.7228 58.1705 52.8298 58.1705 51.8244ZM65.906 51.8599C65.906 51.2567 65.7877 50.7422 65.5512 50.3163C65.3146 49.8787 64.9952 49.5475 64.5931 49.3228C64.1909 49.0862 63.7592 48.968 63.2979 48.968C62.8366 48.968 62.4108 49.0803 62.0205 49.3051C61.6302 49.5298 61.3108 49.861 61.0624 50.2986C60.8259 50.7244 60.7076 51.233 60.7076 51.8244C60.7076 52.4158 60.8259 52.9362 61.0624 53.3857C61.3108 53.8233 61.6302 54.1604 62.0205 54.397C62.4227 54.6336 62.8485 54.7518 63.2979 54.7518C63.7592 54.7518 64.1909 54.6395 64.5931 54.4147C64.9952 54.1782 65.3146 53.847 65.5512 53.4212C65.7877 52.9836 65.906 52.4631 65.906 51.8599ZM79.7045 46.9454L73.619 61.4228H70.9755L73.1045 56.526L69.1658 46.9454H71.9513L74.4884 53.8115L77.061 46.9454H79.7045ZM89.6483 51.647C89.6483 52.0018 89.6246 52.3212 89.5773 52.6051H82.3918C82.451 53.3147 82.6994 53.8707 83.137 54.2728C83.5746 54.675 84.1128 54.876 84.7515 54.876C85.6741 54.876 86.3306 54.4798 86.7209 53.6873H89.3999C89.116 54.6336 88.572 55.4142 87.7677 56.0293C86.9634 56.6325 85.9757 56.9341 84.8048 56.9341C83.8585 56.9341 83.0069 56.7271 82.2499 56.3131C81.5048 55.8873 80.9193 55.29 80.4935 54.5212C80.0795 53.7524 79.8725 52.8653 79.8725 51.8599C79.8725 50.8427 80.0795 49.9497 80.4935 49.1809C80.9074 48.412 81.487 47.8207 82.2322 47.4067C82.9773 46.9927 83.8349 46.7857 84.8048 46.7857C85.7392 46.7857 86.573 46.9868 87.3064 47.3889C88.0515 47.7911 88.6252 48.3647 89.0273 49.1099C89.4413 49.8432 89.6483 50.6889 89.6483 51.647ZM87.0757 50.9373C87.0639 50.2986 86.8332 49.79 86.3838 49.4115C85.9343 49.0212 85.3843 48.826 84.7338 48.826C84.1187 48.826 83.5983 49.0153 83.1725 49.3938C82.7585 49.7604 82.5042 50.275 82.4096 50.9373H87.0757ZM93.4129 48.4712C93.7323 47.9508 94.1463 47.5427 94.6549 47.247C95.1753 46.9513 95.7667 46.8034 96.4291 46.8034V49.4115H95.7726C94.992 49.4115 94.4006 49.5948 93.9984 49.9615C93.6081 50.3282 93.4129 50.9669 93.4129 51.8776V56.7744H90.9291V46.9454H93.4129V48.4712Z" fill="white"/>
</g>
<defs>
<filter id="filter0_in_128_41" x="0" y="0" width="100" height="100" filterUnits="userSpaceOnUse" color-interpolation-filters="sRGB">
<feFlood flood-opacity="0" result="BackgroundImageFix"/>
<feBlend mode="normal" in="SourceGraphic" in2="BackgroundImageFix" result="shape"/>
<feColorMatrix in="SourceAlpha" type="matrix" values="0 0 0 0 0 0 0 0 0 0 0 0 0 0 0 0 0 0 127 0" result="hardAlpha"/>
<feOffset/>
<feGaussianBlur stdDeviation="5.64516"/>
<feComposite in2="hardAlpha" operator="arithmetic" k2="-1" k3="1"/>
<feColorMatrix type="matrix" values="0 0 0 0 0 0 0 0 0 0 0 0 0 0 0 0 0 0 0.4 0"/>
<feBlend mode="normal" in2="shape" result="effect1_innerShadow_128_41"/>
<feTurbulence type="fractalNoise" baseFrequency="12.40000057220459 12.40000057220459" stitchTiles="stitch" numOctaves="3" result="noise" seed="4066" />
<feColorMatrix in="noise" type="luminanceToAlpha" result="alphaNoise" />
<feComponentTransfer in="alphaNoise" result="coloredNoise1">
<feFuncA type="discrete" tableValues="1 1 1 1 1 1 1 1 1 1 1 1 1 1 1 1 1 1 1 1 1 1 1 1 1 1 1 1 1 1 1 1 1 1 1 1 1 1 1 1 1 1 1 1 1 1 1 1 1 1 1 0 0 0 0 0 0 0 0 0 0 0 0 0 0 0 0 0 0 0 0 0 0 0 0 0 0 0 0 0 0 0 0 0 0 0 0 0 0 0 0 0 0 0 0 0 0 0 0 0 "/>
</feComponentTransfer>
<feComposite operator="in" in2="effect1_innerShadow_128_41" in="coloredNoise1" result="noise1Clipped" />
<feFlood flood-color="rgba(0, 0, 0, 0.15)" result="color1Flood" />
<feComposite operator="in" in2="noise1Clipped" in="color1Flood" result="color1" />
<feMerge result="effect2_noise_128_41">
<feMergeNode in="effect1_innerShadow_128_41" />
<feMergeNode in="color1" />
</feMerge>
</filter>
<filter id="filter1_in_128_41" x="17.7422" y="17.7422" width="64.5166" height="64.5166" filterUnits="userSpaceOnUse" color-interpolation-filters="sRGB">
<feFlood flood-opacity="0" result="BackgroundImageFix"/>
<feBlend mode="normal" in="SourceGraphic" in2="BackgroundImageFix" result="shape"/>
<feColorMatrix in="SourceAlpha" type="matrix" values="0 0 0 0 0 0 0 0 0 0 0 0 0 0 0 0 0 0 127 0" result="hardAlpha"/>
<feOffset/>
<feGaussianBlur stdDeviation="5.64516"/>
<feComposite in2="hardAlpha" operator="arithmetic" k2="-1" k3="1"/>
<feColorMatrix type="matrix" values="0 0 0 0 0 0 0 0 0 0 0 0 0 0 0 0 0 0 0.4 0"/>
<feBlend mode="normal" in2="shape" result="effect1_innerShadow_128_41"/>
<feTurbulence type="fractalNoise" baseFrequency="12.40000057220459 12.40000057220459" stitchTiles="stitch" numOctaves="3" result="noise" seed="4066" />
<feColorMatrix in="noise" type="luminanceToAlpha" result="alphaNoise" />
<feComponentTransfer in="alphaNoise" result="coloredNoise1">
<feFuncA type="discrete" tableValues="1 1 1 1 1 1 1 1 1 1 1 1 1 1 1 1 1 1 1 1 1 1 1 1 1 1 1 1 1 1 1 1 1 1 1 1 1 1 1 1 1 1 1 1 1 1 1 1 1 1 1 0 0 0 0 0 0 0 0 0 0 0 0 0 0 0 0 0 0 0 0 0 0 0 0 0 0 0 0 0 0 0 0 0 0 0 0 0 0 0 0 0 0 0 0 0 0 0 0 0 "/>
</feComponentTransfer>
<feComposite operator="in" in2="effect1_innerShadow_128_41" in="coloredNoise1" result="noise1Clipped" />
<feFlood flood-color="rgba(0, 0, 0, 0.15)" result="color1Flood" />
<feComposite operator="in" in2="noise1Clipped" in="color1Flood" result="color1" />
<feMerge result="effect2_noise_128_41">
<feMergeNode in="effect1_innerShadow_128_41" />
<feMergeNode in="color1" />
</feMerge>
</filter>
<clipPath id="clip0_128_41">
<rect width="100" height="100" fill="white"/>
</clipPath>
</defs>
</svg>
