<svg width="32" height="32" viewBox="0 0 32 32" fill="none" xmlns="http://www.w3.org/2000/svg">
<rect width="32" height="32" rx="16" fill="#1A1A1A"/>
<path d="M9.98065 16.5852V21H7.86275V13.3636H9.88121V14.7109H9.9707C10.1397 14.2668 10.4231 13.9155 10.8208 13.657C11.2186 13.3951 11.7008 13.2642 12.2676 13.2642C12.7979 13.2642 13.2602 13.3802 13.6547 13.6122C14.0491 13.8442 14.3556 14.1757 14.5744 14.6065C14.7931 15.0341 14.9025 15.5445 14.9025 16.1378V21H12.7846V16.5156C12.7879 16.0483 12.6686 15.6837 12.4267 15.4219C12.1847 15.1567 11.8516 15.0241 11.4274 15.0241C11.1423 15.0241 10.8904 15.0855 10.6717 15.2081C10.4563 15.3307 10.2872 15.5097 10.1646 15.745C10.0453 15.977 9.98396 16.2571 9.98065 16.5852ZM16.6115 21V10.8182H20.6882C21.4373 10.8182 22.062 10.9292 22.5625 11.1513C23.063 11.3733 23.4392 11.6816 23.6911 12.076C23.9429 12.4671 24.0689 12.9179 24.0689 13.4283C24.0689 13.826 23.9893 14.1757 23.8303 14.4773C23.6712 14.7756 23.4524 15.0208 23.174 15.2131C22.8989 15.402 22.584 15.5362 22.2294 15.6158V15.7152C22.6172 15.7318 22.9801 15.8411 23.3182 16.0433C23.6596 16.2455 23.9363 16.5289 24.1484 16.8935C24.3606 17.2547 24.4666 17.6856 24.4666 18.1861C24.4666 18.7263 24.3324 19.2086 24.0639 19.6328C23.7988 20.0537 23.406 20.3868 22.8857 20.6321C22.3653 20.8774 21.724 21 20.9616 21H16.6115ZM18.7642 19.2401H20.5192C21.1191 19.2401 21.5566 19.1257 21.8317 18.897C22.1068 18.665 22.2443 18.3568 22.2443 17.9723C22.2443 17.6906 22.1764 17.442 22.0405 17.2266C21.9046 17.0111 21.7107 16.8421 21.4588 16.7195C21.2102 16.5968 20.9136 16.5355 20.5689 16.5355H18.7642V19.2401ZM18.7642 15.0788H20.3601C20.6551 15.0788 20.9169 15.0275 21.1456 14.9247C21.3776 14.8187 21.5599 14.6695 21.6925 14.4773C21.8284 14.285 21.8963 14.0547 21.8963 13.7862C21.8963 13.4183 21.7654 13.1217 21.5036 12.8963C21.245 12.6709 20.8771 12.5582 20.3999 12.5582H18.7642V15.0788Z" fill="white"/>
</svg>
